<?xml version="1.0" encoding="UTF-8"?>
<!DOCTYPE svg PUBLIC "-//W3C//DTD SVG 1.1//EN" "http://www.w3.org/Graphics/SVG/1.1/DTD/svg11.dtd">
<!-- Creator: CorelDRAW X7 -->
<svg xmlns="http://www.w3.org/2000/svg" xml:space="preserve" width="12.1918mm" height="12.1918mm" version="1.1" style="shape-rendering:geometricPrecision; text-rendering:geometricPrecision; image-rendering:optimizeQuality; fill-rule:evenodd; clip-rule:evenodd"
viewBox="0 0 1219 1219"
 xmlns:xlink="http://www.w3.org/1999/xlink">
 <defs>
  <style type="text/css">
   <![CDATA[
    .fil1 {fill:#FEFEFE}
    .fil0 {fill:#12A4CC}
   ]]>
  </style>
 </defs>
 <g id="Layer_x0020_1">
  <metadata id="CorelCorpID_0Corel-Layer"/>
  <g id="_870620336">
   <rect class="fil0" width="1219" height="1219" rx="225" ry="225"/>
   <g>
    <path class="fil1" d="M831 476c38,85 38,182 0,267l0 0c-3,6 -5,13 -5,21 0,27 23,50 50,50 21,0 39,-13 47,-32 48,-108 48,-233 1,-342 -6,-20 -25,-34 -47,-34 -28,0 -50,22 -50,50 0,7 1,14 4,20l0 0zm-261 198l84 -49 0 0c3,-2 5,-4 7,-7 5,-9 2,-21 -7,-27l-84 -48 -83 -48c-3,-2 -7,-4 -11,-4 -11,0 -20,9 -20,20l0 97 0 97 0 0c0,4 1,7 3,10 5,9 17,13 27,7l83 -48c0,0 0,0 1,0zm-227 -256c-106,106 -106,278 0,384 106,106 277,106 383,0 20,-20 20,-52 0,-72 -20,-20 -52,-20 -71,0l0 0c-67,67 -174,67 -241,0 -66,-66 -66,-174 0,-240 67,-66 174,-66 241,0 19,20 51,20 71,0 20,-20 20,-52 0,-72l0 0c-106,-106 -277,-106 -383,0zm-110 -109c-2,2 -5,5 -8,8 -2,2 -4,5 -7,8 -2,2 -5,5 -7,8 -2,3 -5,5 -7,8 -2,3 -5,6 -7,9 -2,2 -4,5 -6,8 -2,3 -4,6 -6,9 -2,3 -4,6 -6,9l0 0c-2,3 -4,5 -6,8 -2,3 -4,6 -6,9 -1,3 -3,7 -5,10 -1,3 -3,6 -5,9l0 0c-1,3 -3,6 -5,9l0 0c-1,3 -3,6 -4,9l0 1c-1,3 -3,6 -4,9 -2,3 -3,6 -4,10l0 0c-2,3 -3,6 -4,9l0 0c-1,3 -2,7 -4,10l0 0c-1,3 -2,6 -3,10l0 0c-1,3 -2,6 -3,10l0 0c-1,3 -2,6 -3,9l0 0c-1,4 -1,7 -2,10l0 0c-1,4 -2,7 -3,10l0 0c0,4 -1,7 -2,10l0 0c0,4 -1,7 -1,10l0 0c-1,4 -2,7 -2,11l0 0c-1,3 -1,6 -1,10l0 0c-1,3 -1,6 -1,10l0 0c-1,3 -1,7 -1,10l0 0c-1,3 -1,7 -1,10l0 0c0,4 0,7 0,10l0 0c0,7 0,14 0,21l0 0c0,3 0,7 0,10l0 0c0,3 0,7 1,10l0 0c0,4 0,7 1,10l0 0c0,4 0,7 1,11l0 0c0,3 0,6 1,10 0,3 1,6 2,10l0 0c0,3 1,6 1,10l0 0c2,7 3,13 5,20l0 0c1,3 1,7 2,10l0 0c1,3 2,6 3,10l0 0c2,6 4,13 6,19l0 0c21,59 54,114 101,160 1,1 2,2 3,3 2,2 3,3 5,5 1,1 2,2 3,3 2,1 3,3 4,4 2,1 3,2 4,3 1,1 3,3 4,4 2,1 3,2 4,3 1,1 3,2 4,3 1,2 3,3 4,4 2,1 3,2 4,3 2,1 3,2 4,3 2,1 3,2 4,3 2,1 3,2 5,3 1,1 2,2 4,3 1,1 3,2 4,3 1,1 3,2 4,3 2,1 3,2 5,3 1,1 2,2 4,3 1,1 3,1 4,2 2,1 3,2 4,3 2,1 3,2 5,3 1,1 3,1 4,2 2,1 3,2 5,3 1,0 2,1 3,2 7,3 14,7 20,10 1,0 2,1 3,1 2,1 4,2 6,3 1,0 2,1 3,1 2,1 4,2 6,3 1,0 2,1 3,1 2,1 4,2 6,2 1,1 2,1 3,2 2,1 4,1 6,2 1,0 3,1 4,1 2,1 4,2 6,2 1,1 2,1 3,1 2,1 4,2 6,2l3 1c2,1 4,2 6,2 1,0 3,1 4,1 2,1 4,1 6,2 1,0 2,0 3,1 2,0 4,1 6,1 1,0 2,1 3,1 2,0 5,1 7,1l1 1c15,3 30,5 46,7l0 0c3,0 6,0 8,1l2 0c3,0 5,0 8,0l2 0c2,0 5,1 7,1l2 0c3,0 5,0 8,0l2 0c2,0 5,0 8,0l1 0c3,0 6,0 8,0l2 0c2,0 5,-1 8,-1l1 0c84,-4 168,-34 239,-90l0 0c13,-10 26,-21 38,-34 20,-20 20,-52 0,-72 -20,-20 -52,-20 -72,0 -127,127 -331,127 -458,0 -126,-126 -126,-331 0,-457 127,-126 331,-126 458,0l0 0 0 0c20,20 52,20 72,0 20,-19 20,-52 0,-72l0 0 0 0c-52,-52 -114,-88 -180,-107l0 0c-3,-1 -7,-2 -10,-3l0 0c-3,-1 -6,-2 -10,-3l0 0c-10,-2 -20,-4 -30,-6l0 0c-13,-2 -27,-4 -40,-5l0 0c-7,0 -14,0 -21,-1l0 0c-3,0 -7,0 -10,0l0 0c-3,0 -7,0 -10,0l0 0c-4,0 -7,1 -10,1l0 0c-4,0 -7,0 -11,0l0 0c-3,1 -6,1 -10,1l0 0c-3,1 -7,1 -10,1l0 0c-3,1 -7,1 -10,2l0 0c-4,0 -7,1 -10,1l0 0c-4,1 -7,1 -10,2l0 0c-4,1 -7,1 -10,2l0 0c-4,1 -7,2 -10,2l0 0c-4,1 -7,2 -10,3l0 0c-4,1 -7,2 -10,3l0 0c-3,1 -7,2 -10,3l0 0c-3,1 -7,2 -10,3l0 0c-3,1 -6,2 -9,4l0 0c-4,1 -7,2 -10,3l0 0c-3,2 -7,3 -10,4l0 0c-3,2 -6,3 -9,5l0 0c-3,1 -6,3 -10,4l0 0c-3,2 -6,3 -9,5l0 0c-3,2 -6,3 -9,5 -3,2 -6,3 -9,5l0 0c-3,2 -6,4 -9,6l0 0c-3,1 -6,3 -9,5l0 0c-3,2 -6,4 -9,6l0 0c-3,2 -6,4 -9,6 -2,3 -5,5 -8,7l0 0c-3,2 -6,4 -9,7 -2,2 -5,4 -8,7l0 0c-3,2 -5,4 -8,7 -3,2 -5,5 -8,7 -3,3 -5,5 -8,8zm566 353c3,-17 5,-34 5,-52 0,-18 -2,-35 -5,-52l0 0c-5,-23 -24,-40 -48,-40 -27,0 -49,22 -49,50 0,3 0,7 1,10l0 0c2,10 3,21 3,32 0,11 -1,22 -3,32l0 0c-1,3 -1,7 -1,10 0,28 22,50 49,50 24,0 43,-17 48,-40l0 0zm240 226l0 0c1,-1 1,-1 1,-2 45,-82 71,-176 71,-276 0,-101 -26,-196 -72,-279 -8,-16 -25,-27 -45,-27 -28,0 -50,22 -50,50 0,10 2,18 7,26 37,68 59,146 59,230 0,82 -21,160 -58,227l0 0c-4,8 -7,16 -7,26 0,28 23,50 50,50 19,0 35,-10 44,-25l0 0zm-88 -508l0 0 0 0z"/>
   </g>
  </g>
 </g>
</svg>
