<?xml version="1.0" encoding="UTF-8"?>
<!DOCTYPE svg PUBLIC "-//W3C//DTD SVG 1.1//EN" "http://www.w3.org/Graphics/SVG/1.1/DTD/svg11.dtd">
<!-- Creator: CorelDRAW X7 -->
<svg xmlns="http://www.w3.org/2000/svg" xml:space="preserve" width="21.6746mm" height="21.6746mm" version="1.1" style="shape-rendering:geometricPrecision; text-rendering:geometricPrecision; image-rendering:optimizeQuality; fill-rule:evenodd; clip-rule:evenodd"
viewBox="0 0 2167 2167"
 xmlns:xlink="http://www.w3.org/1999/xlink">
 <defs>
  <style type="text/css">
   <![CDATA[
    .fil1 {fill:#FEFEFE}
    .fil0 {fill:#12A4CC}
   ]]>
  </style>
 </defs>
 <g id="Layer_x0020_1">
  <metadata id="CorelCorpID_0Corel-Layer"/>
  <g id="_870599376">
   <rect class="fil0" width="2167" height="2167" rx="400" ry="400"/>
   <g>
    <path class="fil1" d="M1477 847c67,150 67,323 0,474l0 0c-5,11 -8,23 -8,36 0,50 40,89 89,89 37,0 69,-23 82,-55 86,-193 87,-415 3,-609 -12,-35 -45,-61 -85,-61 -49,0 -89,40 -89,89 0,13 3,25 8,36l0 1zm-464 351l149 -87 0 0c5,-3 10,-7 13,-12 10,-17 4,-38 -13,-48l-149 -86 -147 -85c-6,-4 -12,-6 -20,-6 -19,0 -35,15 -35,35l0 172 0 173 0 0c0,6 2,12 5,17 9,17 31,23 47,13l148 -85c1,-1 1,-1 2,-1zm-404 -454c-188,188 -188,493 0,682 189,188 494,188 682,0 35,-36 35,-93 0,-128 -35,-35 -92,-35 -127,0l0 0c-118,118 -309,118 -427,0 -118,-118 -118,-309 0,-427 118,-118 309,-118 427,0 35,35 92,35 127,0 35,-35 35,-92 0,-127l0 0c-188,-189 -493,-189 -682,0zm-194 -195c-5,5 -10,9 -14,14 -5,5 -9,9 -13,14 -5,5 -9,10 -13,15 -4,5 -8,10 -12,14 -4,5 -8,10 -12,15 -4,5 -8,11 -12,16 -3,5 -7,10 -11,15 -3,5 -7,10 -10,16l0 0c-4,5 -7,10 -11,15 -3,6 -6,11 -9,17 -3,5 -7,10 -10,16 -3,5 -6,11 -8,16l0 0c-3,6 -6,11 -9,17l0 0c-3,5 -5,11 -8,16l0 0c-2,6 -5,12 -7,17 -3,6 -5,12 -8,17l0 0c-2,6 -4,12 -6,17l0 0c-2,6 -5,12 -7,18l0 0c-2,5 -4,11 -5,17l0 0c-2,6 -4,12 -6,17l0 0c-2,6 -3,12 -5,18l0 0c-1,6 -3,12 -4,18l0 0c-2,6 -3,12 -4,17l0 0c-2,6 -3,12 -4,18l0 0c-1,6 -2,12 -3,18l0 0c-1,6 -2,12 -3,18l0 0c-1,6 -2,12 -3,18l0 0c0,6 -1,12 -2,18l0 0c0,6 -1,12 -1,18l0 0c0,6 -1,12 -1,18l0 0c0,7 -1,13 -1,19l0 0c0,12 0,24 0,36l0 0c0,6 1,12 1,18l0 0c0,6 1,12 1,18l0 0c0,6 1,12 1,18l0 0c1,6 2,12 2,18l0 0c1,6 2,12 3,18 1,6 2,12 3,18l0 0c1,6 2,12 3,18l0 0c2,12 5,24 8,36l0 0c1,6 3,12 4,17l0 0c2,6 3,12 5,18l0 0c4,12 7,23 11,35l0 0c37,104 96,201 180,284 1,2 3,4 5,5 2,3 5,6 8,8 2,2 4,4 6,6 3,3 5,5 8,7 2,2 4,4 6,6 2,2 5,4 8,7 2,2 4,3 6,5 3,2 5,4 8,6 2,2 4,4 7,6 2,2 5,4 7,6 2,2 5,4 7,6 3,1 5,3 8,5 2,2 5,4 7,6 3,1 5,3 7,5 3,2 5,3 8,5 2,2 5,3 7,5 3,2 6,4 8,5 3,2 5,3 7,5 3,2 6,3 8,5 3,2 5,3 8,5 3,1 5,3 8,4 2,2 5,3 7,5 3,1 6,3 9,4 2,2 4,3 6,4 12,6 23,12 35,18 2,1 4,1 5,2 4,2 7,3 10,5 2,1 5,2 7,3 3,1 6,2 10,4 2,1 4,2 6,2 3,2 7,3 10,4 2,1 4,2 6,3 4,1 7,2 10,4 2,0 5,1 7,2 3,1 7,2 10,4 2,0 4,1 6,2 4,1 7,2 11,3l6 2c3,1 7,2 10,3 2,1 5,1 7,2 3,1 7,2 10,3 2,0 4,1 6,1 4,1 8,2 11,3 2,0 4,1 5,1 4,1 8,2 13,3l2 0c26,6 53,10 80,13l1 0c5,1 10,1 15,1l3 1c4,0 9,0 13,1l4 0c4,0 9,0 13,0l4 1c4,0 9,0 14,0l3 0c4,0 9,0 14,0l2 0c5,0 10,0 15,0l2 -1c5,0 10,0 15,0l1 0c151,-9 300,-62 425,-160l0 0c24,-19 46,-39 68,-61 35,-35 35,-92 0,-128 -35,-35 -93,-35 -128,0 -225,225 -589,225 -813,0 -225,-224 -225,-588 0,-813 224,-224 588,-224 813,0l0 0 1 1c35,36 92,36 128,0 35,-35 35,-93 0,-128l-1 -1 0 0c-92,-92 -203,-156 -319,-190l0 0c-6,-2 -12,-4 -18,-5l0 0c-6,-2 -12,-3 -18,-5l0 0c-17,-4 -35,-8 -53,-11l0 0c-24,-4 -48,-7 -72,-8l0 0c-12,-1 -25,-2 -37,-2l0 0c-6,0 -12,0 -18,0l0 0c-6,0 -12,0 -18,0l0 0c-6,0 -12,0 -18,0l0 0c-6,1 -12,1 -18,2l0 0c-6,0 -12,0 -18,1l0 0c-6,1 -12,1 -18,2l0 0c-6,1 -12,1 -18,2l0 0c-6,1 -12,2 -18,3l0 0c-6,1 -12,2 -18,3l0 0c-6,2 -12,3 -18,4l0 0c-6,1 -12,3 -18,4l0 0c-6,2 -12,3 -17,5l0 0c-6,1 -12,3 -18,5l0 0c-6,1 -12,3 -18,5l0 0c-5,2 -11,4 -17,6l0 0c-6,2 -11,4 -17,6l0 0c-6,2 -12,5 -17,7l0 0c-6,2 -12,5 -17,7l0 0c-6,3 -12,5 -17,8l0 0c-6,2 -11,5 -17,8l0 0c-5,2 -11,5 -16,8l0 0c-6,3 -11,6 -17,9 -5,3 -11,6 -16,9l0 0c-5,3 -11,7 -16,10l0 0c-5,3 -11,7 -16,10l0 0c-5,4 -10,7 -15,11l0 0c-6,3 -11,7 -16,11 -5,4 -10,7 -15,11l0 0c-5,4 -10,8 -15,12 -5,4 -10,8 -15,12l0 0c-5,5 -9,9 -14,13 -5,5 -10,9 -15,13 -4,5 -9,9 -13,14zm1006 627c5,-30 8,-60 8,-92 0,-31 -3,-62 -8,-91l-1 0c-8,-41 -43,-73 -85,-73 -48,0 -87,40 -87,90 0,6 0,11 2,17l-1 0c4,19 5,38 5,57 0,20 -1,39 -5,58l1 0c-2,5 -2,11 -2,17 0,49 39,90 87,90 42,0 77,-32 85,-73l1 0zm426 403l0 -1c1,-1 2,-2 2,-3 80,-146 125,-313 125,-491 0,-180 -46,-349 -127,-495 -15,-29 -45,-49 -79,-49 -50,0 -90,40 -90,90 0,16 5,32 12,45 67,121 105,261 105,409 0,146 -37,284 -103,404l0 1c-7,13 -12,28 -12,45 0,49 40,89 90,89 33,0 62,-18 77,-44l0 0zm-157 -904l0 0 0 0z"/>
   </g>
  </g>
 </g>
</svg>
