<?xml version="1.0" encoding="UTF-8"?>
<!DOCTYPE svg PUBLIC "-//W3C//DTD SVG 1.1//EN" "http://www.w3.org/Graphics/SVG/1.1/DTD/svg11.dtd">
<!-- Creator: CorelDRAW X7 -->
<svg xmlns="http://www.w3.org/2000/svg" xml:space="preserve" width="4.0638mm" height="4.0638mm" version="1.1" style="shape-rendering:geometricPrecision; text-rendering:geometricPrecision; image-rendering:optimizeQuality; fill-rule:evenodd; clip-rule:evenodd"
viewBox="0 0 406 406"
 xmlns:xlink="http://www.w3.org/1999/xlink">
 <defs>
  <style type="text/css">
   <![CDATA[
    .fil1 {fill:#FEFEFE}
    .fil0 {fill:#12A4CC}
   ]]>
  </style>
 </defs>
 <g id="Layer_x0020_1">
  <metadata id="CorelCorpID_0Corel-Layer"/>
  <g id="_870611504">
   <rect class="fil0" width="406" height="406" rx="75" ry="75"/>
   <g>
    <path class="fil1" d="M277 159c13,28 13,60 0,89l0 0c-1,2 -2,4 -2,7 0,9 8,16 17,16 7,0 13,-4 16,-10 16,-36 16,-78 0,-114 -2,-7 -8,-12 -16,-12 -9,0 -16,8 -16,17 0,2 0,5 1,7l0 0zm-87 66l28 -17 0 0c1,0 2,-1 2,-2 2,-3 1,-7 -2,-9l-28 -16 -28 -16c-1,-1 -2,-1 -3,-1 -4,0 -7,3 -7,6l0 33 0 32 0 0c0,1 0,2 1,3 2,3 6,5 9,3l28 -16c0,0 0,0 0,0zm-76 -86c-35,36 -35,93 0,128 36,36 93,36 128,0 7,-6 7,-17 0,-24 -7,-6 -17,-6 -24,0l0 0c-22,23 -58,23 -80,0 -22,-22 -22,-58 0,-80 22,-22 58,-22 80,0 7,7 17,7 24,0 7,-6 7,-17 0,-24l0 0c-35,-35 -92,-35 -128,0zm-36 -36c-1,1 -2,2 -3,3 -1,0 -1,1 -2,2 -1,1 -2,2 -3,3 0,1 -1,2 -2,3 -1,1 -2,2 -2,3 -1,0 -2,1 -2,2 -1,1 -2,2 -2,3 -1,1 -2,2 -2,3l0 0c-1,1 -2,2 -2,3 -1,1 -2,2 -2,3 -1,1 -1,2 -2,3 0,1 -1,2 -2,3l0 0c0,1 -1,2 -1,3l0 0c-1,1 -1,2 -2,3l0 0c0,2 -1,3 -1,4 -1,1 -1,2 -1,3l0 0c-1,1 -1,2 -2,3l0 0c0,1 0,2 -1,3l0 0c0,1 -1,2 -1,4l0 0c0,1 -1,2 -1,3l0 0c0,1 -1,2 -1,3l0 0c0,1 0,2 -1,3l0 0c0,2 0,3 -1,4l0 0c0,1 0,2 0,3l0 0c0,1 -1,2 -1,3l0 0c0,2 0,3 0,4l0 0c-1,1 -1,2 -1,3l0 0c0,1 0,2 0,4l0 0c0,1 0,2 0,3l0 0c-1,1 -1,2 -1,3l0 0c0,2 0,3 0,4l0 0c0,2 0,4 0,7l0 0c0,1 0,2 0,3l0 0c0,1 0,2 1,3l0 0c0,2 0,3 0,4l0 0c0,1 0,2 0,3l0 0c0,1 0,2 1,4 0,1 0,2 0,3l0 0c0,1 1,2 1,3l0 0c0,3 1,5 1,7l0 0c1,1 1,2 1,3l0 0c0,1 1,2 1,4l0 0c1,2 1,4 2,6l0 0c7,20 18,38 34,53 0,1 0,1 1,1 0,1 1,1 1,2 1,0 1,1 1,1 1,0 1,1 2,1 0,1 1,1 1,1 0,1 1,1 1,2 1,0 1,0 2,1 0,0 1,0 1,1 0,0 1,1 1,1 1,0 1,1 2,1 0,0 1,1 1,1 1,0 1,1 1,1 1,0 1,1 2,1 0,0 1,1 1,1 1,0 1,1 2,1 0,0 1,1 1,1 1,0 1,1 2,1 0,0 0,1 1,1 0,0 1,0 1,1 1,0 1,0 2,1 0,0 1,0 1,1 1,0 1,0 2,0 0,1 1,1 1,1 1,0 1,1 1,1 3,1 5,2 7,3 0,0 1,1 1,1 1,0 1,0 2,1 0,0 1,0 1,0 1,0 1,1 2,1 0,0 1,0 1,0 1,1 1,1 2,1 0,0 1,0 1,1 1,0 1,0 2,0 0,0 1,1 1,1 1,0 2,0 2,0 1,1 1,1 1,1 1,0 2,0 2,0l1 1c1,0 2,0 2,0 1,0 1,1 2,1 0,0 1,0 2,0 0,0 0,0 1,1 0,0 1,0 2,0 0,0 0,0 1,0 0,0 1,1 2,1l0 0c5,1 10,2 16,2l0 0c1,0 2,0 2,1l1 0c1,0 2,0 3,0l0 0c1,0 2,0 3,0l0 0c1,0 2,0 3,0l1 0c0,0 1,0 2,0l1 0c1,0 2,0 2,0l1 0c1,0 2,0 3,0l0 0c28,-2 56,-12 80,-30l0 0c4,-4 8,-7 12,-12 7,-6 7,-17 0,-24 -6,-6 -17,-6 -24,0 -42,43 -110,43 -152,0 -42,-42 -42,-110 0,-152 42,-42 110,-42 152,0l0 0 0 0c7,7 18,7 24,0 7,-6 7,-17 0,-24l0 0 0 0c-17,-17 -38,-29 -60,-36l0 0c-1,0 -2,0 -3,-1l0 0c-1,0 -2,0 -3,-1l0 0c-4,0 -7,-1 -10,-2l0 0c-5,0 -9,-1 -14,-1l0 0c-2,0 -4,0 -7,-1l0 0c-1,0 -2,0 -3,0l0 0c-1,0 -2,0 -3,0l0 0c-2,0 -3,1 -4,1l0 0c-1,0 -2,0 -3,0l0 0c-1,0 -2,0 -4,0l0 0c-1,0 -2,0 -3,0l0 0c-1,1 -2,1 -3,1l0 0c-2,0 -3,0 -4,0l0 0c-1,1 -2,1 -3,1l0 0c-1,0 -2,0 -3,1l0 0c-2,0 -3,0 -4,0l0 0c-1,1 -2,1 -3,1l0 0c-1,1 -2,1 -3,1l0 0c-1,1 -3,1 -4,1l0 0c-1,1 -2,1 -3,1l0 0c-1,1 -2,1 -3,2l0 0c-1,0 -2,0 -3,1l0 0c-1,0 -3,1 -4,1l0 0c-1,1 -2,1 -3,2l0 0c-1,0 -2,1 -3,1l0 0c-1,1 -2,1 -3,2l0 0c-1,0 -2,1 -3,1 -1,1 -2,1 -3,2l0 0c-1,1 -2,1 -3,2l0 0c-1,0 -2,1 -3,2l0 0c-1,0 -2,1 -3,2l0 0c-1,0 -2,1 -3,2 -1,1 -2,1 -3,2l0 0c-1,1 -2,1 -3,2 0,1 -1,2 -2,3l0 0c-1,0 -2,1 -3,2 -1,1 -2,2 -3,2 -1,1 -1,2 -2,3zm188 118c1,-6 2,-12 2,-18 0,-6 -1,-11 -2,-17l0 0c-1,-8 -8,-13 -16,-13 -9,0 -16,7 -16,16 0,1 0,3 0,4l0 0c1,3 1,7 1,10 0,4 0,8 -1,11l0 0c0,1 0,2 0,3 0,10 7,17 16,17 8,0 15,-6 16,-13l0 0zm80 75l0 0c0,0 1,0 1,-1 15,-27 23,-58 23,-92 0,-33 -8,-65 -24,-93 -2,-5 -8,-9 -15,-9 -9,0 -16,8 -16,17 0,3 0,6 2,9 12,22 20,48 20,76 0,28 -7,54 -20,76l0 0c-1,3 -2,5 -2,9 0,9 8,16 17,16 6,0 11,-3 14,-8l0 0zm-29 -169l0 0 0 0z"/>
   </g>
  </g>
 </g>
</svg>
