<?xml version="1.0" encoding="UTF-8"?>
<!DOCTYPE svg PUBLIC "-//W3C//DTD SVG 1.1//EN" "http://www.w3.org/Graphics/SVG/1.1/DTD/svg11.dtd">
<!-- Creator: CorelDRAW X7 -->
<svg xmlns="http://www.w3.org/2000/svg" xml:space="preserve" width="8.1278mm" height="8.1278mm" version="1.1" style="shape-rendering:geometricPrecision; text-rendering:geometricPrecision; image-rendering:optimizeQuality; fill-rule:evenodd; clip-rule:evenodd"
viewBox="0 0 813 813"
 xmlns:xlink="http://www.w3.org/1999/xlink">
 <defs>
  <style type="text/css">
   <![CDATA[
    .fil1 {fill:#FEFEFE}
    .fil0 {fill:#12A4CC}
   ]]>
  </style>
 </defs>
 <g id="Layer_x0020_1">
  <metadata id="CorelCorpID_0Corel-Layer"/>
  <g id="_870625328">
   <rect class="fil0" width="813" height="813" rx="150" ry="150"/>
   <g>
    <path class="fil1" d="M554 317c25,57 25,122 0,178l0 0c-2,5 -3,9 -3,14 0,18 15,33 33,33 14,0 26,-8 31,-20 32,-73 33,-156 1,-229 -4,-13 -17,-23 -32,-23 -18,0 -33,15 -33,34 0,5 1,9 3,13l0 0zm-174 132l56 -32 0 0c2,-1 3,-3 5,-5 3,-6 1,-14 -5,-18l-56 -32 -55 -32c-2,-1 -5,-2 -8,-2 -7,0 -13,6 -13,13l0 64 0 65 0 0c0,2 1,5 2,7 4,6 11,8 18,5l55 -32c0,-1 1,-1 1,-1zm-152 -170c-70,71 -70,185 0,256 71,70 186,70 256,0 13,-14 13,-35 0,-48 -13,-13 -34,-13 -48,0l0 0c-44,44 -116,44 -160,0 -44,-44 -44,-116 0,-160 44,-44 116,-44 160,0 14,13 35,13 48,0 13,-13 13,-35 0,-48l0 0c-70,-71 -185,-71 -256,0zm-73 -73c-1,2 -3,3 -5,5 -1,2 -3,4 -5,5 -1,2 -3,4 -4,6 -2,2 -4,4 -5,5 -2,2 -3,4 -4,6 -2,2 -3,4 -5,6 -1,2 -3,4 -4,6 -1,1 -3,3 -4,5l0 0c-1,2 -2,4 -4,6 -1,2 -2,4 -3,6 -2,2 -3,4 -4,6 -1,2 -2,4 -3,7l0 0c-1,2 -2,4 -3,6l0 0c-1,2 -2,4 -3,6l0 0c-1,2 -2,4 -3,6 -1,2 -2,5 -3,7l0 0c-1,2 -2,4 -2,6l0 0c-1,2 -2,4 -3,7l0 0c0,2 -1,4 -2,6l0 0c-1,2 -1,4 -2,7l0 0c-1,2 -1,4 -2,6l0 0c0,2 -1,5 -2,7l0 0c0,2 -1,4 -1,7l0 0c-1,2 -1,4 -1,6l0 0c-1,2 -1,5 -2,7l0 0c0,2 0,4 -1,7l0 0c0,2 0,4 -1,6l0 0c0,3 0,5 0,7l0 0c-1,2 -1,5 -1,7l0 0c0,2 0,5 0,7l0 0c0,2 0,4 -1,7l0 0c0,4 0,9 0,13l0 0c1,2 1,5 1,7l0 0c0,2 0,5 0,7l0 0c0,2 0,4 1,7l0 0c0,2 0,4 0,6l0 0c1,3 1,5 1,7 1,2 1,5 1,7l0 0c1,2 1,4 2,7l0 0c0,4 1,8 2,13l0 0c1,2 2,4 2,7l0 0c1,2 1,4 2,6l0 0c1,5 3,9 4,13l0 0c14,39 36,76 67,107 1,1 2,1 2,2 1,1 2,2 3,3 1,1 2,1 3,2 1,1 2,2 3,3 0,0 1,1 2,2 1,1 2,1 3,2 1,1 2,2 2,2 1,1 2,2 3,3 1,0 2,1 3,2 1,1 2,1 3,2 0,1 1,1 2,2 1,1 2,1 3,2 1,1 2,2 3,2 1,1 2,2 2,2 1,1 2,2 3,2 1,1 2,1 3,2 1,1 2,1 3,2 1,1 2,1 3,2 1,0 2,1 3,2 1,0 2,1 3,1 1,1 2,2 3,2 0,1 1,1 2,2 1,0 2,1 3,1 1,1 2,1 3,2 4,2 9,4 13,7 1,0 1,0 2,0 1,1 3,2 4,2 1,0 1,1 2,1 1,1 3,1 4,2 1,0 1,0 2,1 1,0 3,1 4,1 1,1 2,1 2,1 2,1 3,1 4,2 1,0 2,0 3,1 1,0 2,0 3,1 1,0 2,0 3,1 1,0 2,0 4,1l2 1c1,0 3,0 4,1 1,0 1,0 2,0 2,1 3,1 4,2 1,0 2,0 2,0 2,0 3,1 5,1 0,0 1,0 1,1 2,0 4,0 5,1l1 0c10,2 20,3 30,4l0 1c2,0 4,0 6,0l1 0c2,0 3,0 5,0l1 1c2,0 4,0 6,0l1 0c2,0 3,0 5,0l1 0c2,0 4,0 5,0l1 0c2,0 4,0 6,0l1 0c2,0 4,0 5,0l1 0c56,-4 112,-24 159,-61l0 0c9,-6 17,-14 25,-22 14,-13 14,-35 0,-48 -13,-13 -34,-13 -48,0 -84,84 -220,84 -304,0 -85,-84 -85,-221 0,-305 84,-84 220,-84 304,0l0 0 1 0c13,14 35,14 48,0 13,-13 13,-34 0,-48l-1 0 0 0c-34,-35 -75,-59 -119,-71l0 0c-3,-1 -5,-2 -7,-2l0 0c-2,-1 -4,-2 -7,-2l0 0c-6,-2 -13,-3 -20,-4l0 0c-9,-2 -18,-3 -27,-3l0 0c-4,-1 -9,-1 -13,-1l0 0c-3,0 -5,0 -7,0l0 0c-2,0 -5,0 -7,0l0 0c-2,0 -4,0 -7,0l0 0c-2,0 -4,0 -6,1l0 0c-3,0 -5,0 -7,0l0 0c-2,0 -5,1 -7,1l0 0c-2,0 -5,0 -7,1l0 0c-2,0 -4,0 -6,1l0 0c-3,0 -5,1 -7,1l0 0c-2,0 -5,1 -7,1l0 0c-2,1 -4,1 -7,2l0 0c-2,0 -4,1 -6,2l0 0c-2,0 -5,1 -7,2l0 0c-2,0 -4,1 -6,2l0 0c-3,0 -5,1 -7,2l0 0c-2,0 -4,1 -6,2l0 0c-2,1 -5,2 -7,3l0 0c-2,0 -4,1 -6,2l0 0c-2,1 -4,2 -6,3l0 0c-3,1 -5,2 -7,3l0 0c-2,1 -4,2 -6,3l0 0c-2,1 -4,2 -6,4 -2,1 -4,2 -6,3l0 0c-2,1 -4,2 -6,4l0 0c-2,1 -4,2 -6,4l0 0c-2,1 -4,2 -6,4l0 0c-2,1 -4,2 -6,4 -2,1 -4,2 -5,4l0 0c-2,1 -4,3 -6,4 -2,2 -4,3 -6,5l0 0c-1,2 -3,3 -5,5 -2,1 -4,3 -5,5 -2,1 -4,3 -6,5zm378 235c2,-11 3,-23 3,-34 0,-12 -1,-24 -3,-35l0 0c-3,-15 -17,-27 -32,-27 -18,0 -33,15 -33,34 0,2 0,4 1,6l-1 0c2,7 2,14 2,22 0,7 0,14 -2,21l1 0c-1,2 -1,4 -1,7 0,18 15,33 33,33 15,0 29,-11 32,-27l0 0zm160 151l0 0c0,-1 0,-1 0,-1 30,-55 47,-118 47,-185 0,-67 -17,-130 -47,-185 -6,-11 -17,-18 -30,-18 -19,0 -34,15 -34,33 0,6 2,12 5,17 25,46 39,98 39,153 0,55 -14,107 -38,152l0 0c-3,5 -5,11 -5,17 0,19 15,34 34,34 12,0 23,-7 29,-17l0 0zm-59 -339l0 0 0 0z"/>
   </g>
  </g>
 </g>
</svg>
