<?xml version="1.0" encoding="UTF-8"?>
<!DOCTYPE svg PUBLIC "-//W3C//DTD SVG 1.1//EN" "http://www.w3.org/Graphics/SVG/1.1/DTD/svg11.dtd">
<!-- Creator: CorelDRAW X7 -->
<svg xmlns="http://www.w3.org/2000/svg" xml:space="preserve" width="86.6986mm" height="21.3358mm" version="1.1" style="shape-rendering:geometricPrecision; text-rendering:geometricPrecision; image-rendering:optimizeQuality; fill-rule:evenodd; clip-rule:evenodd"
viewBox="0 0 8670 2134"
 xmlns:xlink="http://www.w3.org/1999/xlink">
 <defs>
  <style type="text/css">
   <![CDATA[
    .fil0 {fill:#12A4CC}
    .fil1 {fill:#12A4CC;fill-rule:nonzero}
   ]]>
  </style>
 </defs>
 <g id="Layer_x0020_1">
  <metadata id="CorelCorpID_0Corel-Layer"/>
  <g id="_881078800">
   <g>
    <path class="fil0" d="M1811 732c96,212 96,457 0,669l0 0c-7,16 -11,34 -11,52 0,69 57,125 126,125 52,0 98,-32 116,-78 121,-272 122,-585 4,-858 -17,-51 -64,-87 -120,-87 -69,0 -125,56 -125,125 0,19 4,36 11,52l-1 0zm-654 496l211 -122 0 0c7,-4 13,-10 18,-18 13,-24 5,-54 -18,-67l-211 -122 -207 -119c-8,-6 -18,-9 -29,-9 -27,0 -49,22 -49,49l0 243 0 244 0 0c0,8 2,16 7,24 13,24 43,32 67,18l208 -120c1,0 2,-1 3,-1zm-570 -641c-265,266 -265,696 0,962 266,266 697,266 962,0 50,-50 50,-130 0,-180 -49,-49 -130,-49 -179,0l0 0c-167,167 -436,167 -603,0 -166,-166 -166,-436 0,-602 167,-166 436,-166 603,0 49,50 130,50 179,0 50,-50 50,-130 0,-180l0 0c-265,-265 -696,-265 -962,0zm-274 -275c-7,7 -13,14 -19,20 -7,7 -13,14 -19,20 -6,7 -12,14 -18,21 -6,7 -12,14 -17,21 -6,6 -12,14 -17,21 -6,7 -11,14 -16,21 -6,7 -11,15 -16,22 -5,7 -10,14 -15,22l0 0c-5,7 -10,15 -14,22 -5,8 -10,15 -14,23 -4,7 -9,15 -13,23 -4,7 -9,15 -13,23l0 0c-4,7 -8,15 -12,23l0 0c-3,8 -7,16 -11,24l0 0c-3,8 -7,15 -10,23 -4,8 -7,16 -11,24l0 0c-3,8 -6,16 -9,25l0 0c-3,8 -6,16 -9,24l0 0c-3,8 -5,16 -8,24l0 0c-3,9 -5,17 -8,25l0 0c-2,8 -5,17 -7,25l0 0c-2,8 -4,17 -6,25l0 0c-2,8 -4,17 -6,25l0 0c-2,8 -4,17 -5,25l0 0c-2,8 -3,17 -5,25l0 0c-1,9 -2,17 -4,26l0 0c-1,8 -2,17 -3,25l0 0c-1,9 -2,17 -3,26l0 0c-1,8 -1,17 -2,25l0 0c-1,9 -1,17 -1,26l0 0c-1,8 -1,17 -1,25l0 0c-1,17 -1,34 0,51l0 0c0,9 0,17 1,26l0 0c0,9 0,17 1,26l0 0c1,8 1,17 2,25l0 0c1,9 2,17 3,26l0 0c1,8 2,16 3,25 2,8 3,17 4,25l0 0c2,9 3,17 5,26l0 0c3,16 7,33 11,50l0 0c2,8 4,16 6,25l0 0c2,8 5,16 7,25l0 0c5,16 10,32 16,49l0 0c51,146 136,284 253,401 2,3 5,5 7,7 4,4 8,8 11,11 3,3 6,6 9,9 4,3 7,6 11,9 3,3 6,6 9,8 3,4 7,7 11,10 3,3 6,5 9,8 4,3 7,6 10,9 4,2 7,5 11,8 3,3 6,5 10,8 3,3 7,5 10,8 3,2 7,5 10,8 4,2 7,5 11,7 3,3 7,5 10,8 4,2 7,5 11,7 3,3 7,5 10,7 4,3 8,5 11,8 4,2 7,4 10,6 4,2 8,5 12,7 3,2 7,5 10,7 4,2 8,4 12,6 3,2 7,4 10,6 4,3 8,5 12,7 3,2 6,4 9,5 17,9 33,17 50,25 2,1 5,3 7,4 5,2 9,4 14,6 3,1 6,3 9,4 4,2 9,4 14,6 3,1 6,3 9,4 4,2 9,4 14,6 3,1 6,2 9,3 4,2 9,4 14,5 3,1 6,3 9,4 5,1 10,3 14,5 3,1 6,2 9,3 5,1 10,3 15,4l9 3c5,2 10,3 15,4 3,1 5,2 8,3 5,1 11,3 16,4 2,1 5,1 7,2 6,1 11,3 17,4 2,1 4,1 6,2 6,1 12,2 18,4l3 0c37,8 75,14 113,18l2 0c7,1 14,1 20,2l4 0c7,1 13,1 20,2l5 0c6,0 12,1 19,1l5 0c6,0 13,0 19,0l4 0c7,1 14,1 21,0l3 0c7,0 14,0 21,0l3 0c7,0 14,-1 21,-1l1 0c213,-12 423,-87 600,-226l0 0c33,-26 65,-54 95,-85 50,-50 50,-131 0,-181 -50,-50 -131,-50 -180,0 -317,317 -831,317 -1147,0 -317,-316 -317,-830 0,-1147 316,-316 830,-316 1147,0l0 0 1 2c50,50 131,50 181,0 50,-50 50,-131 0,-181l-2 -1 0 -1c-130,-130 -285,-219 -450,-268l0 0c-8,-2 -17,-5 -25,-7l0 0c-8,-2 -17,-4 -25,-6l0 0c-25,-7 -50,-12 -75,-16l0 0c-34,-6 -68,-10 -102,-12l0 0c-17,-1 -34,-2 -51,-3l0 0c-9,0 -17,0 -26,0l0 0c-8,0 -17,0 -25,0l0 0c-9,1 -18,1 -26,1l0 0c-9,1 -17,1 -26,2l0 0c-8,0 -17,1 -25,2l0 0c-9,1 -17,2 -26,3l0 0c-8,1 -17,2 -25,3l0 0c-9,1 -17,3 -25,4l0 0c-9,1 -17,3 -26,5l0 0c-8,1 -16,3 -25,5l0 0c-8,2 -17,4 -25,6l0 0c-8,2 -17,4 -25,6l0 0c-8,2 -16,5 -25,7l0 0c-8,2 -16,5 -24,8l0 0c-8,2 -17,5 -25,8l0 0c-8,3 -16,6 -24,9l0 0c-8,3 -16,6 -24,9l0 0c-8,3 -16,7 -24,10l0 0c-8,4 -16,7 -24,11l0 0c-8,4 -16,7 -24,11l0 0c-7,4 -15,8 -23,12l0 0c-8,4 -15,8 -23,13 -8,4 -15,8 -23,13l0 0c-8,4 -15,9 -23,13l0 0c-7,5 -14,10 -22,15l0 0c-7,5 -15,10 -22,15l0 0c-7,5 -14,10 -22,15 -7,6 -14,11 -21,16l0 0c-7,6 -14,12 -21,17 -7,6 -14,12 -21,18l0 0c-7,6 -14,12 -20,18 -7,6 -14,12 -20,18 -7,7 -14,13 -20,19zm1419 885c8,-42 12,-85 12,-129 0,-44 -4,-88 -12,-130l-1 1c-10,-59 -60,-103 -120,-103 -68,0 -122,57 -122,127 0,8 0,16 2,24l-1 0c5,26 8,53 8,81 0,28 -3,55 -8,81l1 0c-2,8 -2,16 -2,24 0,70 54,126 122,126 60,0 110,-44 120,-102l1 0zm602 568l0 -1c1,-1 2,-2 3,-4 112,-206 176,-442 176,-693 0,-254 -65,-492 -179,-699 -21,-40 -64,-68 -112,-68 -70,0 -127,57 -127,127 0,23 7,45 18,63 94,171 148,368 148,577 0,207 -53,401 -146,571l0 0c-10,19 -17,40 -17,64 0,69 57,126 127,126 46,0 87,-25 109,-63l0 0zm-221 -1275l0 0 0 0z"/>
   </g>
   <path class="fil1" d="M3579 1164l0 -148c0,-20 -4,-39 -12,-57 -8,-18 -18,-33 -32,-47 -13,-13 -28,-24 -46,-31 -18,-8 -37,-12 -57,-12 -21,0 -40,4 -58,12 -18,7 -33,18 -47,31 -13,14 -23,29 -31,47 -8,18 -12,37 -12,57l0 148 295 0zm147 293l-147 0 0 -147 -295 0 0 147 -146 0 0 -441c0,-40 7,-78 23,-114 15,-36 36,-67 63,-94 26,-26 57,-47 93,-63 36,-15 74,-23 115,-23 40,0 78,8 114,23 36,16 67,37 94,63 26,27 47,58 63,94 15,36 23,74 23,114l0 441zm511 -64c-11,11 -23,20 -36,29 -13,9 -26,17 -40,24 -14,7 -29,12 -44,16 -15,4 -30,6 -45,6 -34,0 -66,-6 -95,-18 -30,-12 -56,-29 -79,-51 -22,-22 -40,-49 -52,-81 -13,-31 -20,-67 -20,-106l0 -304 140 0 0 304c0,18 3,35 8,49 6,15 14,27 23,37 10,10 21,17 34,23 12,5 26,7 41,7 14,0 28,-3 41,-10 13,-7 24,-15 33,-26 10,-11 17,-24 23,-37 5,-14 8,-28 8,-43l0 -304 140 0 0 549 -34 0 -46 -64zm717 64l-33 0 -55 -75c-13,12 -27,23 -42,34 -15,10 -31,19 -47,27 -16,7 -33,14 -50,18 -18,4 -35,7 -53,7 -39,0 -75,-8 -109,-22 -34,-15 -64,-35 -89,-61 -26,-25 -46,-56 -60,-91 -15,-36 -23,-74 -23,-116 0,-41 8,-80 23,-115 14,-36 34,-67 60,-93 25,-26 55,-46 89,-61 34,-14 70,-22 109,-22 12,0 25,1 38,3 13,2 26,6 39,10 12,5 24,11 35,19 11,7 20,16 27,27l0 -256 141 0 0 767zm-141 -279c0,-19 -3,-38 -11,-56 -7,-18 -17,-34 -30,-47 -12,-14 -27,-25 -44,-34 -17,-8 -35,-12 -54,-12 -19,0 -37,3 -54,10 -17,7 -32,17 -44,30 -13,12 -23,28 -30,46 -7,19 -11,40 -11,63 0,20 4,39 11,57 7,19 17,34 30,48 12,14 27,25 44,32 17,8 35,12 54,12 19,0 37,-4 54,-12 17,-9 32,-20 44,-34 13,-13 23,-29 30,-47 8,-18 11,-37 11,-56zm413 -419c0,13 -2,25 -7,36 -5,12 -12,21 -20,30 -9,8 -19,15 -31,20 -11,5 -23,7 -36,7 -13,0 -25,-2 -37,-7 -11,-5 -21,-12 -29,-20 -9,-9 -15,-18 -21,-30 -4,-11 -7,-23 -7,-36 0,-13 3,-25 7,-36 6,-12 12,-21 21,-30 8,-8 18,-15 29,-20 12,-5 24,-7 37,-7 13,0 25,2 36,7 12,5 22,12 31,20 8,9 15,18 20,30 5,11 7,23 7,36zm-24 698l-141 0 0 -549 141 0 0 549zm638 -279c0,41 -8,79 -23,115 -14,35 -34,66 -60,91 -25,26 -55,46 -88,61 -34,15 -71,23 -110,23 -39,0 -75,-8 -109,-23 -34,-15 -64,-35 -89,-61 -26,-25 -46,-56 -60,-91 -15,-36 -22,-74 -22,-115 0,-42 7,-80 22,-116 14,-35 34,-66 60,-92 25,-26 55,-46 89,-61 34,-14 70,-22 109,-22 39,0 76,7 110,21 33,14 63,33 88,59 26,25 46,56 60,92 15,35 23,75 23,119zm-142 0c0,-23 -3,-43 -11,-61 -7,-19 -17,-34 -29,-47 -13,-14 -28,-24 -45,-31 -17,-7 -35,-10 -54,-10 -19,0 -37,3 -54,10 -17,7 -32,17 -44,31 -13,13 -22,28 -30,47 -7,18 -10,38 -10,61 0,21 3,41 10,59 8,18 17,34 30,47 12,13 27,24 44,32 17,7 35,11 54,11 19,0 37,-3 54,-11 17,-7 32,-17 45,-30 12,-13 22,-29 29,-47 8,-19 11,-39 11,-61zm1116 59c0,30 -6,59 -18,86 -11,26 -27,50 -47,70 -20,20 -43,35 -70,47 -27,12 -55,17 -86,17l-367 0 0 -735 367 0c31,0 59,6 86,17 27,12 50,28 70,48 20,20 36,43 47,70 12,27 18,55 18,86 0,13 -2,27 -6,42 -4,14 -9,28 -16,41 -6,13 -15,26 -24,37 -10,11 -20,20 -32,27 12,6 23,15 32,26 10,11 18,24 25,37 7,13 12,27 15,42 4,14 6,28 6,42zm-441 73l220 0c11,0 20,-2 29,-5 9,-4 17,-9 24,-16 6,-7 11,-14 15,-23 4,-9 6,-19 6,-29 0,-10 -2,-20 -6,-29 -4,-9 -9,-16 -15,-23 -7,-7 -15,-12 -24,-16 -9,-3 -18,-5 -29,-5l-220 0 0 146zm0 -294l220 0c11,0 20,-1 29,-5 9,-4 17,-9 24,-16 6,-6 11,-14 15,-23 4,-10 6,-19 6,-29 0,-11 -2,-20 -6,-29 -4,-9 -9,-17 -15,-23 -7,-7 -15,-12 -24,-16 -9,-4 -18,-6 -29,-6l-220 0 0 147zm1069 441l-34 0 -54 -75c-13,12 -28,23 -42,34 -15,10 -31,19 -47,27 -17,7 -34,14 -51,18 -17,4 -35,7 -52,7 -39,0 -75,-7 -109,-20 -34,-13 -64,-32 -90,-56 -25,-25 -45,-55 -60,-91 -15,-36 -22,-77 -22,-123 0,-43 7,-82 22,-118 15,-35 35,-66 60,-92 26,-25 56,-45 90,-59 34,-15 70,-22 109,-22 17,0 35,2 52,7 18,4 35,11 51,18 17,8 32,17 47,28 15,11 29,22 42,34l54 -65 34 0 0 548zm-141 -279c0,-19 -4,-38 -11,-56 -7,-18 -17,-34 -30,-47 -13,-14 -27,-25 -44,-34 -17,-8 -35,-12 -54,-12 -20,0 -38,3 -55,9 -16,7 -31,17 -44,29 -12,13 -22,28 -29,47 -7,19 -11,40 -11,64 0,24 4,45 11,64 7,18 17,34 29,47 13,12 28,22 44,28 17,7 35,10 55,10 19,0 37,-4 54,-12 17,-9 31,-20 44,-34 13,-13 23,-29 30,-47 7,-18 11,-37 11,-56zm388 279l-140 0 0 -549 33 0 47 54c22,-21 48,-37 76,-48 29,-11 59,-16 90,-16 33,0 65,6 95,19 29,13 55,30 78,52 22,23 39,49 52,79 13,30 19,62 19,96l0 313 -140 0 0 -313c0,-15 -2,-28 -8,-41 -5,-13 -13,-24 -22,-34 -10,-9 -21,-17 -34,-22 -12,-6 -26,-9 -40,-9 -15,0 -29,3 -42,9 -13,5 -24,13 -34,22 -9,10 -17,21 -22,34 -6,13 -8,26 -8,41l0 313zm981 0l-34 0 -55 -75c-13,12 -27,23 -42,34 -15,10 -30,19 -47,27 -16,7 -33,14 -50,18 -18,4 -35,7 -53,7 -39,0 -75,-8 -109,-22 -34,-15 -64,-35 -89,-61 -26,-25 -46,-56 -60,-91 -15,-36 -22,-74 -22,-116 0,-41 7,-80 22,-115 14,-36 34,-67 60,-93 25,-26 55,-46 89,-61 34,-14 70,-22 109,-22 12,0 25,1 38,3 13,2 26,6 39,10 12,5 24,11 35,19 11,7 20,16 27,27l0 -256 142 0 0 767zm-142 -279c0,-19 -3,-38 -11,-56 -7,-18 -17,-34 -29,-47 -13,-14 -28,-25 -45,-34 -17,-8 -35,-12 -54,-12 -19,0 -37,3 -54,10 -17,7 -32,17 -44,30 -13,12 -22,28 -30,46 -7,19 -10,40 -10,63 0,20 3,39 10,57 8,19 17,34 30,48 12,14 27,25 44,32 17,8 35,12 54,12 19,0 37,-4 54,-12 17,-9 32,-20 45,-34 12,-13 22,-29 29,-47 8,-18 11,-37 11,-56z"/>
  </g>
 </g>
</svg>
