<?xml version="1.0" encoding="UTF-8"?>
<!DOCTYPE svg PUBLIC "-//W3C//DTD SVG 1.1//EN" "http://www.w3.org/Graphics/SVG/1.1/DTD/svg11.dtd">
<!-- Creator: CorelDRAW X7 -->
<svg xmlns="http://www.w3.org/2000/svg" xml:space="preserve" width="43.3492mm" height="36.8298mm" version="1.1" style="shape-rendering:geometricPrecision; text-rendering:geometricPrecision; image-rendering:optimizeQuality; fill-rule:evenodd; clip-rule:evenodd"
viewBox="0 0 4335 3683"
 xmlns:xlink="http://www.w3.org/1999/xlink">
 <defs>
  <style type="text/css">
   <![CDATA[
    .fil0 {fill:#12A4CC}
   ]]>
  </style>
 </defs>
 <g id="Layer_x0020_1">
  <metadata id="CorelCorpID_0Corel-Layer"/>
  <g>
   <path class="fil0" d="M3124 1264c164,367 164,789 0,1155l0 0c-12,27 -19,57 -19,89 0,119 97,216 216,216 91,0 169,-56 201,-135 209,-470 211,-1010 6,-1481 -28,-87 -110,-149 -206,-149 -119,0 -216,97 -216,216 0,32 7,62 19,89l-1 0zm-1129 855l364 -210 0 0c12,-7 23,-18 31,-31 23,-41 9,-93 -32,-116l-363 -210 -357 -206c-14,-10 -31,-16 -49,-16 -47,0 -85,39 -85,86l0 419 0 420 0 0c0,15 4,29 11,43 24,40 75,54 116,31l359 -208c2,0 4,-1 5,-2zm-982 -1105c-458,458 -458,1201 0,1660 458,458 1201,458 1659,0 86,-86 86,-225 0,-311 -86,-85 -224,-85 -310,0l0 0c-287,287 -752,287 -1039,0 -287,-287 -287,-752 0,-1039 287,-286 752,-286 1039,0 86,86 224,86 310,0 86,-85 86,-224 0,-310l0 0c-458,-458 -1201,-458 -1659,0zm-474 -474c-11,12 -22,23 -33,34 -11,12 -22,23 -32,35 -11,12 -21,23 -31,35 -11,12 -21,24 -30,36 -10,12 -20,24 -29,37 -10,12 -19,24 -28,37 -9,12 -18,24 -27,37 -9,13 -17,25 -26,38l0 0c-8,13 -16,26 -25,39 -8,12 -16,25 -23,39 -8,13 -16,26 -23,39 -7,13 -14,26 -21,40l0 0c-7,13 -14,27 -21,40l0 0c-7,14 -13,27 -19,41l0 0c-7,13 -13,27 -19,41 -6,13 -12,27 -17,41l0 0c-6,14 -11,28 -17,42l0 0c-5,14 -10,28 -15,42l0 0c-5,14 -9,28 -14,42l0 0c-5,14 -9,28 -13,43l0 0c-4,14 -8,28 -12,42l0 0c-4,15 -8,29 -11,43l0 0c-4,15 -7,29 -10,44l0 0c-4,14 -7,29 -9,43l0 0c-3,15 -6,29 -8,44l0 0c-3,14 -5,29 -7,43l0 0c-2,15 -4,30 -6,44l0 0c-2,15 -3,30 -5,44l0 0c-1,15 -2,29 -3,44l0 0c-1,15 -2,30 -3,44l0 0c-1,15 -1,30 -1,44l0 0c-1,30 -1,59 0,89l0 0c0,14 0,29 1,44l0 0c1,15 2,29 3,44l0 0c1,15 2,29 3,44l0 0c2,15 3,29 5,44l0 0c2,14 4,29 6,44 2,14 4,29 7,43l0 0c2,15 5,30 8,44l0 0c5,29 12,58 19,87l0 0c3,14 7,28 11,43l0 0c4,14 8,28 12,42l0 0c8,29 17,57 27,85l0 0c89,253 234,491 436,693 4,4 8,8 12,12 7,6 14,13 20,19 5,5 11,10 16,15 6,5 12,11 18,16 5,5 10,10 15,14 6,6 13,11 19,16 5,5 11,10 17,15 5,5 11,9 17,14 6,5 12,10 18,14 5,5 11,10 17,14 6,5 12,10 18,14 6,5 12,9 17,13 7,5 13,9 19,14 6,4 12,8 17,12 7,5 13,9 19,14 6,4 12,7 18,11 6,5 13,9 19,13 6,4 12,8 17,11 7,5 13,9 20,13 6,4 12,7 18,11 7,4 13,8 20,12 6,3 12,7 18,10 7,4 13,8 20,11 5,3 11,6 16,9 28,15 57,30 85,44 5,2 9,4 13,6 8,3 16,7 24,11 5,2 10,4 15,6 8,4 16,7 24,11 6,2 11,4 16,6 8,3 16,7 25,10 5,2 10,4 15,6 8,3 16,6 24,9 5,2 11,4 16,6 8,3 16,6 25,8 5,2 10,4 15,5 8,3 17,6 25,9l15 4c9,3 17,5 26,8 5,1 10,3 15,4 9,3 18,5 26,7 5,2 9,3 14,4 9,2 18,5 28,7 4,1 7,2 11,3 10,2 21,4 31,6l5 1c64,14 130,24 196,31l2 0c12,2 24,3 36,4l6 0c12,1 23,2 34,2l8 1c11,0 22,1 34,1l8 1c11,0 22,0 34,0l7 1c11,0 23,0 35,0l6 -1c11,0 23,0 35,0l5 0c13,-1 25,-1 37,-2l2 0c368,-21 730,-150 1034,-390l0 0c57,-45 113,-94 165,-146 87,-86 87,-226 0,-312 -86,-86 -225,-86 -312,0 -546,546 -1432,546 -1978,0 -546,-547 -546,-1432 0,-1979 546,-546 1432,-546 1978,0l0 0 3 3c86,86 225,86 312,0 86,-87 86,-226 0,-312l-3 -3 0 0c-224,-224 -492,-379 -777,-463l0 0c-14,-4 -28,-8 -43,-12l0 0c-14,-4 -28,-7 -43,-11l0 0c-43,-11 -86,-19 -130,-27l0 0c-58,-10 -117,-17 -175,-21l0 0c-30,-2 -59,-3 -89,-4l0 0c-14,0 -29,-1 -44,-1l0 0c-15,0 -29,1 -44,1l0 0c-15,0 -29,1 -44,1l0 0c-15,1 -30,2 -44,3l0 0c-15,1 -30,2 -44,4l0 0c-15,1 -30,3 -44,5l0 0c-15,1 -29,3 -44,5l0 0c-15,2 -29,5 -44,7l0 0c-14,3 -29,5 -43,8l0 0c-15,3 -29,6 -44,9l0 0c-14,3 -29,7 -43,10l0 0c-14,4 -29,7 -43,11l0 0c-14,4 -29,8 -43,12l0 0c-14,4 -28,9 -42,13l0 0c-14,5 -29,10 -43,15l0 0c-14,4 -28,10 -42,15l0 0c-14,5 -27,11 -41,16l0 0c-14,6 -28,12 -42,18l0 0c-13,5 -27,12 -41,18l0 0c-13,6 -27,13 -40,19l0 0c-14,7 -27,14 -41,21l0 0c-13,7 -26,14 -39,22 -14,7 -27,14 -40,22l0 0c-13,8 -26,16 -39,24l0 0c-13,8 -26,16 -38,25l0 0c-13,8 -26,17 -38,25l0 0c-13,9 -25,18 -38,27 -12,9 -25,19 -37,28l0 0c-12,10 -24,19 -36,29 -12,10 -24,20 -36,30l0 0c-12,10 -24,21 -35,31 -12,11 -24,21 -35,32 -11,11 -23,22 -34,33zm2448 1526c14,-72 21,-146 21,-223 0,-76 -7,-151 -21,-223l-1 0c-19,-100 -104,-176 -207,-176 -117,0 -212,97 -212,218 0,14 1,28 4,41l-1 1c8,45 13,91 13,139 0,48 -5,95 -13,140l1 0c-3,14 -4,27 -4,42 0,120 95,218 212,218 103,0 188,-76 207,-177l1 0zm1038 980l1 -1c1,-3 3,-5 4,-7 194,-356 305,-763 305,-1197 0,-436 -112,-847 -310,-1204 -36,-70 -109,-118 -193,-118 -121,0 -218,98 -218,218 0,40 11,78 30,110 162,295 255,634 255,994 0,357 -91,693 -250,985l0 0c-19,33 -30,70 -30,110 0,121 97,218 218,218 80,0 150,-43 188,-108l0 0zm-381 -2199l0 0 0 0z"/>
  </g>
 </g>
</svg>
