<?xml version="1.0" encoding="UTF-8"?>
<!DOCTYPE svg PUBLIC "-//W3C//DTD SVG 1.1//EN" "http://www.w3.org/Graphics/SVG/1.1/DTD/svg11.dtd">
<!-- Creator: CorelDRAW X7 -->
<svg xmlns="http://www.w3.org/2000/svg" xml:space="preserve" width="86.6986mm" height="22.5212mm" version="1.1" style="shape-rendering:geometricPrecision; text-rendering:geometricPrecision; image-rendering:optimizeQuality; fill-rule:evenodd; clip-rule:evenodd"
viewBox="0 0 8670 2252"
 xmlns:xlink="http://www.w3.org/1999/xlink">
 <defs>
  <style type="text/css">
   <![CDATA[
    .fil1 {fill:#FEFEFE}
    .fil0 {fill:#12A4CC}
    .fil2 {fill:#12A4CC;fill-rule:nonzero}
   ]]>
  </style>
 </defs>
 <g id="Layer_x0020_1">
  <metadata id="CorelCorpID_0Corel-Layer"/>
  <g id="_602653904">
   <rect class="fil0" y="-2" width="2256" height="2256" rx="416" ry="416"/>
   <g>
    <path class="fil1" d="M1537 879c70,157 70,337 0,494l0 0c-5,12 -8,24 -8,38 0,51 41,93 92,93 39,0 73,-24 86,-58 90,-201 90,-432 3,-634 -12,-37 -47,-64 -88,-64 -51,0 -93,42 -93,93 0,14 3,26 8,38l0 0zm-483 366l156 -90 0 0c5,-3 10,-8 13,-13 10,-18 4,-40 -13,-50l-156 -90 -152 -88c-6,-4 -14,-6 -22,-6 -20,0 -36,16 -36,36l0 180 0 179 0 0c0,6 2,12 5,18 10,17 32,23 49,14l154 -89c1,-1 1,-1 2,-1zm-420 -473c-196,196 -196,514 0,710 196,196 514,196 710,0 36,-37 36,-96 0,-133 -37,-36 -96,-36 -133,0l0 0c-123,123 -322,123 -444,0 -123,-122 -123,-321 0,-444 122,-123 321,-123 444,0 37,37 96,37 133,0 36,-37 36,-96 0,-133l0 0c-196,-196 -514,-196 -710,0zm-203 -202c-4,4 -9,9 -14,14 -4,5 -9,10 -13,15 -5,5 -9,10 -14,15 -4,5 -8,10 -13,15 -4,6 -8,11 -12,16 -4,5 -8,10 -12,16 -4,5 -8,10 -11,16 -4,5 -8,11 -11,16l0 0c-4,6 -8,11 -11,17 -3,5 -7,11 -10,16 -3,6 -7,11 -10,17 -3,6 -6,11 -9,17l0 0c-3,6 -6,12 -9,17l0 0c-3,6 -5,12 -8,18l0 0c-3,6 -5,11 -8,17 -3,6 -5,12 -7,18l0 0c-3,6 -5,12 -7,18l0 0c-3,6 -5,12 -7,18l0 0c-2,6 -4,12 -6,18l0 0c-2,6 -4,12 -6,18l0 0c-1,6 -3,12 -5,18l0 0c-2,6 -3,13 -5,19l0 0c-1,6 -3,12 -4,18l0 0c-1,6 -2,13 -4,19l0 0c-1,6 -2,12 -3,18l0 0c-1,7 -2,13 -3,19l0 0c-1,6 -2,13 -2,19l0 0c-1,6 -2,12 -2,19l0 0c-1,6 -2,12 -2,18l0 0c-1,7 -1,13 -1,19l0 0c0,7 -1,13 -1,19l0 0c0,13 0,25 0,38l0 0c0,6 1,13 1,19l0 0c0,6 0,12 1,19l0 0c0,6 1,12 2,19l0 0c0,6 1,12 2,18l0 0c0,7 1,13 2,19 1,6 2,13 3,19l0 0c1,6 2,12 3,18l0 0c3,13 5,25 8,37l0 0c2,7 3,13 5,19l0 0c2,6 4,12 5,18l0 0c4,12 8,24 12,36l0 0c38,109 100,210 186,297 2,1 4,3 6,5 3,3 5,5 8,8 2,2 5,4 7,6 2,3 5,5 8,7 2,2 4,4 6,6 3,3 5,5 8,7 2,2 5,4 7,6 3,2 5,4 8,7 2,2 5,4 7,6 3,2 5,4 8,6 2,2 5,4 7,5 3,2 5,4 8,6 2,2 5,4 8,6 2,2 5,3 7,5 3,2 6,4 8,6 3,2 5,3 8,5 2,2 5,4 8,6 3,1 5,3 7,4 3,2 6,4 9,6 2,1 5,3 8,4 2,2 5,4 8,5 3,2 5,3 8,5 3,1 5,3 8,5 3,1 5,2 7,3 12,7 24,13 37,19 1,1 3,2 5,2 4,2 7,4 10,5 3,1 5,2 7,3 3,2 7,3 10,4 2,1 5,2 7,3 3,2 7,3 10,4 3,1 5,2 7,3 3,1 7,3 10,4 3,1 5,2 7,2 4,2 7,3 11,4 2,1 4,1 6,2 4,1 7,3 11,4l7 2c3,1 7,2 10,3 3,1 5,1 7,2 4,1 7,2 11,3 2,0 4,1 6,1 4,1 8,2 12,3 1,1 3,1 5,1 4,1 8,2 13,3l2 1c28,6 56,10 84,13l1 0c5,1 10,1 15,1l3 1c5,0 9,0 14,1l4 0c4,0 9,0 14,1l4 0c4,0 9,0 14,0l3 0c5,0 10,0 15,0l3 0c5,0 10,0 15,0l2 0c5,-1 11,-1 16,-1l1 0c157,-9 312,-64 442,-167l0 0c24,-19 48,-40 70,-62 37,-37 37,-97 0,-134 -36,-37 -96,-37 -133,0 -234,234 -613,234 -846,0 -234,-234 -234,-612 0,-846 233,-234 612,-234 846,0l0 0 1 1c37,37 97,37 133,0 37,-37 37,-97 0,-133l-1 -1 0 0c-96,-96 -210,-162 -332,-199l0 0c-6,-1 -12,-3 -18,-5l0 0c-6,-1 -13,-3 -19,-4l0 0c-18,-5 -37,-9 -55,-12l0 0c-25,-4 -50,-7 -75,-9l0 0c-13,-1 -26,-1 -38,-2l0 0c-7,0 -13,0 -19,0l0 0c-6,0 -13,0 -19,0l0 0c-6,0 -13,1 -19,1l0 0c-6,0 -12,1 -19,1l0 0c-6,1 -12,1 -19,2l0 0c-6,0 -12,1 -18,2l0 0c-7,0 -13,1 -19,2l0 0c-6,1 -13,2 -19,3l0 0c-6,1 -12,2 -18,3l0 0c-7,2 -13,3 -19,4l0 0c-6,2 -12,3 -18,5l0 0c-7,1 -13,3 -19,4l0 0c-6,2 -12,4 -18,5l0 0c-6,2 -12,4 -18,6l0 0c-6,2 -12,4 -18,6l0 0c-6,2 -12,4 -18,7l0 0c-6,2 -12,4 -18,7l0 0c-6,2 -12,5 -18,7l0 0c-6,3 -12,5 -17,8l0 0c-6,3 -12,5 -18,8l0 0c-6,3 -11,6 -17,9l0 0c-6,3 -11,6 -17,9 -6,3 -11,7 -17,10l0 0c-6,3 -11,7 -17,10l0 0c-5,4 -11,7 -16,11l0 0c-6,3 -11,7 -16,11l0 0c-6,4 -11,7 -16,11 -6,4 -11,8 -16,12l0 0c-5,4 -11,8 -16,13 -5,4 -10,8 -15,12l0 0c-5,5 -10,9 -15,14 -5,4 -10,9 -15,13 -5,5 -10,10 -15,15zm1047 652c6,-31 9,-63 9,-95 0,-33 -3,-65 -9,-96l0 0c-8,-43 -45,-75 -89,-75 -50,0 -90,42 -90,93 0,6 0,12 1,18l0 0c4,19 6,39 6,60 0,20 -2,40 -6,60l0 0c-1,5 -1,11 -1,17 0,52 40,94 90,94 44,0 81,-33 89,-76l0 0zm444 419l1 0c0,-1 1,-2 1,-3 84,-152 131,-327 131,-512 0,-187 -48,-362 -133,-515 -15,-30 -46,-50 -82,-50 -52,0 -94,41 -94,93 0,17 5,33 13,47 70,126 110,271 110,425 0,153 -39,296 -108,421l0 0c-8,14 -12,30 -12,47 0,52 41,94 93,94 34,0 64,-19 80,-47l0 0zm-163 -940l0 0 0 0z"/>
   </g>
   <path class="fil2" d="M3269 1229l0 -156c0,-22 -4,-42 -12,-61 -8,-19 -20,-36 -34,-50 -14,-14 -30,-25 -49,-33 -19,-8 -40,-12 -61,-12 -21,0 -42,4 -61,12 -19,8 -35,19 -49,33 -15,14 -26,31 -34,50 -8,19 -12,39 -12,61l0 156 312 0zm156 311l-156 0 0 -156 -312 0 0 156 -156 0 0 -467c0,-43 9,-84 25,-122 16,-38 38,-71 67,-99 28,-28 61,-51 98,-67 38,-16 79,-25 122,-25 43,0 84,9 122,25 37,16 71,39 99,67 28,28 50,61 67,99 16,38 24,79 24,122l0 467zm543 -67c-12,10 -25,21 -39,30 -13,10 -28,18 -42,25 -15,7 -31,13 -46,17 -16,4 -32,6 -49,6 -35,0 -69,-6 -101,-19 -31,-12 -59,-30 -83,-54 -23,-23 -42,-52 -56,-85 -13,-34 -20,-71 -20,-113l0 -322 148 0 0 322c0,19 3,37 9,52 6,16 14,29 24,39 10,11 22,19 36,24 13,6 28,8 43,8 16,0 30,-3 44,-10 13,-7 25,-17 35,-28 11,-12 19,-25 24,-40 6,-14 9,-29 9,-45l0 -322 148 0 0 582 -35 0 -49 -67zm761 67l-36 0 -58 -80c-14,13 -29,25 -45,36 -16,11 -32,21 -50,29 -17,8 -35,15 -53,19 -18,5 -37,7 -56,7 -41,0 -79,-7 -115,-23 -37,-15 -68,-37 -95,-64 -27,-27 -48,-60 -64,-97 -16,-38 -23,-79 -23,-123 0,-44 7,-85 23,-122 16,-38 37,-71 64,-98 27,-28 58,-49 95,-65 36,-16 74,-23 115,-23 13,0 27,1 41,3 14,2 27,6 40,10 14,5 26,12 38,20 11,8 21,18 29,29l0 -272 150 0 0 814zm-150 -296c0,-20 -4,-40 -12,-59 -7,-19 -18,-36 -31,-51 -14,-14 -30,-26 -48,-35 -17,-9 -37,-13 -57,-13 -20,0 -39,3 -57,11 -18,7 -34,17 -47,31 -13,13 -24,30 -31,50 -8,19 -12,41 -12,66 0,22 4,42 12,61 7,19 18,36 31,51 13,14 29,26 47,34 18,8 37,12 57,12 20,0 40,-4 57,-13 18,-9 34,-21 48,-35 13,-15 24,-32 31,-51 8,-19 12,-39 12,-59zm438 -444c0,13 -3,26 -8,38 -5,12 -12,23 -21,31 -9,9 -20,16 -32,22 -12,5 -25,8 -39,8 -14,0 -27,-3 -39,-8 -12,-6 -23,-13 -31,-22 -9,-8 -16,-19 -22,-31 -5,-12 -8,-25 -8,-38 0,-14 3,-27 8,-39 6,-12 13,-22 22,-31 8,-9 19,-16 31,-22 12,-5 25,-7 39,-7 14,0 27,2 39,7 12,6 23,13 32,22 9,9 16,19 21,31 5,12 8,25 8,39zm-26 740l-149 0 0 -582 149 0 0 582zm677 -296c0,44 -8,84 -24,122 -15,37 -37,70 -63,97 -27,27 -59,49 -95,65 -36,15 -75,23 -116,23 -41,0 -79,-8 -115,-23 -37,-16 -68,-38 -95,-65 -27,-27 -48,-60 -64,-97 -16,-38 -23,-78 -23,-122 0,-44 7,-85 23,-123 16,-38 37,-70 64,-98 27,-27 58,-48 95,-64 36,-16 74,-23 115,-23 41,0 80,7 116,22 36,14 68,35 95,62 26,27 48,60 63,98 16,37 24,80 24,126zm-150 0c0,-24 -4,-46 -12,-65 -8,-19 -18,-36 -31,-50 -14,-14 -30,-25 -48,-32 -17,-8 -37,-11 -57,-11 -20,0 -39,3 -57,11 -18,7 -34,18 -47,32 -13,14 -24,31 -31,50 -8,19 -12,41 -12,65 0,22 4,43 12,63 7,19 18,36 31,50 13,14 29,25 47,33 18,8 37,12 57,12 20,0 40,-4 57,-11 18,-8 34,-18 48,-32 13,-14 23,-31 31,-50 8,-20 12,-41 12,-65zm1183 63c0,32 -6,62 -18,91 -13,28 -29,52 -51,74 -21,21 -45,38 -74,50 -28,12 -58,18 -91,18l-390 0 0 -780 390 0c33,0 63,7 91,19 29,12 53,29 74,50 22,22 38,46 51,74 12,29 18,59 18,91 0,15 -2,30 -6,45 -4,15 -9,30 -17,44 -7,14 -16,27 -26,39 -10,11 -21,21 -33,28 12,7 24,17 34,28 10,12 19,25 26,39 7,15 13,29 17,45 3,15 5,30 5,45zm-468 77l234 0c11,0 22,-2 31,-6 9,-4 18,-9 25,-16 7,-7 12,-16 16,-25 4,-9 6,-20 6,-30 0,-11 -2,-21 -6,-31 -4,-9 -9,-18 -16,-25 -7,-7 -16,-12 -25,-16 -9,-4 -20,-6 -31,-6l-234 0 0 155zm0 -311l234 0c11,0 22,-2 31,-6 9,-4 18,-10 25,-17 7,-7 12,-15 16,-25 4,-10 6,-20 6,-31 0,-11 -2,-21 -6,-30 -4,-10 -9,-18 -16,-25 -7,-7 -16,-13 -25,-16 -9,-5 -20,-6 -31,-6l-234 0 0 156zm1135 467l-36 0 -58 -80c-14,13 -29,25 -45,36 -16,11 -32,21 -50,29 -17,8 -35,15 -53,19 -18,5 -37,7 -56,7 -41,0 -79,-7 -115,-20 -37,-14 -68,-34 -95,-60 -27,-27 -48,-59 -64,-97 -16,-38 -23,-81 -23,-130 0,-45 7,-87 23,-125 16,-38 37,-70 64,-97 27,-28 58,-49 95,-64 36,-15 74,-22 115,-22 19,0 38,2 56,7 19,4 37,11 54,19 17,9 34,18 50,30 16,11 30,23 44,36l58 -69 36 0 0 581zm-150 -296c0,-20 -4,-40 -12,-59 -7,-19 -18,-36 -31,-51 -14,-14 -30,-26 -48,-35 -17,-9 -37,-13 -57,-13 -20,0 -39,3 -57,10 -18,7 -34,17 -47,30 -13,14 -24,31 -31,50 -8,20 -12,43 -12,68 0,25 4,48 12,68 7,19 18,36 31,50 13,13 29,23 47,30 18,7 37,10 57,10 20,0 40,-4 57,-13 18,-9 34,-21 48,-35 13,-15 24,-32 31,-51 8,-19 12,-39 12,-59zm411 296l-148 0 0 -582 36 0 49 56c24,-21 51,-38 81,-50 30,-12 62,-17 95,-17 35,0 69,6 100,20 32,13 60,32 83,56 24,24 42,51 56,83 14,32 20,66 20,102l0 332 -148 0 0 -332c0,-16 -3,-30 -9,-44 -6,-13 -14,-25 -24,-35 -10,-10 -22,-18 -35,-24 -14,-6 -28,-9 -43,-9 -16,0 -30,3 -44,9 -14,6 -26,14 -36,24 -10,10 -18,22 -24,35 -6,14 -9,28 -9,44l0 332zm1041 0l-36 0 -58 -80c-14,13 -29,25 -45,36 -15,11 -32,21 -49,29 -18,8 -36,15 -54,19 -18,5 -37,7 -56,7 -41,0 -79,-7 -115,-23 -36,-15 -68,-37 -95,-64 -27,-27 -48,-60 -64,-97 -15,-38 -23,-79 -23,-123 0,-44 8,-85 23,-122 16,-38 37,-71 64,-98 27,-28 59,-49 95,-65 36,-16 74,-23 115,-23 13,0 27,1 41,3 14,2 27,6 41,10 13,5 25,12 37,20 12,8 21,18 29,29l0 -272 150 0 0 814zm-150 -296c0,-20 -4,-40 -11,-59 -8,-19 -19,-36 -32,-51 -14,-14 -29,-26 -47,-35 -18,-9 -37,-13 -58,-13 -20,0 -39,3 -57,11 -18,7 -34,17 -47,31 -13,13 -24,30 -31,50 -8,19 -12,41 -12,66 0,22 4,42 12,61 7,19 18,36 31,51 13,14 29,26 47,34 18,8 37,12 57,12 21,0 40,-4 58,-13 18,-9 33,-21 47,-35 13,-15 24,-32 32,-51 7,-19 11,-39 11,-59z"/>
  </g>
 </g>
</svg>
