<?xml version="1.0" encoding="UTF-8"?>
<!DOCTYPE svg PUBLIC "-//W3C//DTD SVG 1.1//EN" "http://www.w3.org/Graphics/SVG/1.1/DTD/svg11.dtd">
<!-- Creator: CorelDRAW X7 -->
<svg xmlns="http://www.w3.org/2000/svg" xml:space="preserve" width="6.0958mm" height="6.0958mm" version="1.1" style="shape-rendering:geometricPrecision; text-rendering:geometricPrecision; image-rendering:optimizeQuality; fill-rule:evenodd; clip-rule:evenodd"
viewBox="0 0 610 610"
 xmlns:xlink="http://www.w3.org/1999/xlink">
 <defs>
  <style type="text/css">
   <![CDATA[
    .fil1 {fill:#FEFEFE}
    .fil0 {fill:#12A4CC}
   ]]>
  </style>
 </defs>
 <g id="Layer_x0020_1">
  <metadata id="CorelCorpID_0Corel-Layer"/>
  <g id="_891831440">
   <rect class="fil0" width="610" height="610" rx="112" ry="112"/>
   <g>
    <path class="fil1" d="M415 238c19,42 19,91 0,134l0 0c-1,3 -2,6 -2,10 0,14 11,25 25,25 11,0 20,-7 23,-16 24,-54 25,-117 1,-171 -3,-10 -13,-17 -24,-17 -14,0 -25,11 -25,25 0,3 1,7 2,10l0 0zm-130 99l42 -24 0 0c1,-1 3,-2 3,-4 3,-5 2,-11 -3,-13l-42 -25 -41 -23c-2,-2 -4,-2 -6,-2 -6,0 -10,4 -10,10l0 48 0 49 0 0c0,1 1,3 1,5 3,4 9,6 14,3l41 -24c0,0 1,0 1,0zm-114 -128c-53,53 -53,139 0,192 53,53 139,53 192,0 10,-10 10,-26 0,-36 -10,-10 -26,-10 -36,0l0 0c-33,33 -87,33 -120,0 -33,-33 -33,-87 0,-120 33,-33 87,-33 120,0 10,10 26,10 36,0 10,-10 10,-26 0,-36l0 0c-53,-53 -139,-53 -192,0zm-54 -55c-2,2 -3,3 -4,4 -2,2 -3,3 -4,4 -1,2 -2,3 -4,4 -1,2 -2,3 -3,5 -1,1 -2,2 -3,4 -1,1 -3,3 -4,4 -1,1 -2,3 -3,4 -1,2 -2,3 -3,5l0 0c-1,1 -2,3 -3,4 0,2 -1,3 -2,5 -1,1 -2,3 -3,4 -1,2 -2,3 -2,5l0 0c-1,1 -2,3 -3,5l0 0c-1,1 -1,3 -2,4l0 0c-1,2 -1,3 -2,5 -1,2 -1,3 -2,5l0 0c-1,1 -1,3 -2,5l0 0c-1,1 -1,3 -2,4l0 0c0,2 -1,4 -1,5l0 0c-1,2 -1,4 -2,5l0 0c0,2 -1,4 -1,5l0 0c-1,2 -1,3 -2,5l0 0c0,2 0,3 -1,5l0 0c0,2 0,4 -1,5l0 0c0,2 0,4 -1,5l0 0c0,2 0,4 -1,5l0 0c0,2 0,4 0,5l0 0c0,2 -1,4 -1,5l0 0c0,2 0,4 0,5l0 0c0,2 0,4 0,6l0 0c-1,1 -1,3 -1,5l0 0c0,3 0,6 0,10l0 0c0,2 0,3 1,5l0 0c0,2 0,3 0,5l0 0c0,2 0,3 0,5l0 0c0,2 1,4 1,5l0 0c0,2 0,4 0,5 1,2 1,4 1,5l0 0c1,2 1,4 1,5l0 0c1,4 2,7 2,10l0 0c1,2 1,4 2,5l0 0c0,2 1,4 1,5l0 0c1,4 2,7 3,10l0 0c10,29 27,57 51,80 0,1 1,1 1,2 1,0 2,1 2,2 1,0 1,1 2,1 1,1 1,2 2,2 1,1 1,1 2,2 1,1 1,1 2,2 1,0 1,1 2,2 1,0 1,1 2,1 1,1 1,1 2,2 1,0 1,1 2,1 1,1 1,2 2,2 1,1 2,1 2,2 1,0 2,1 2,1 1,1 2,1 2,2 1,0 2,1 3,1 0,1 1,1 2,1 0,1 1,1 2,2 0,0 1,1 2,1 1,1 1,1 2,2 1,0 1,1 2,1 1,0 2,1 2,1 1,1 2,1 3,2 0,0 1,0 2,1 0,0 1,1 2,1 3,2 6,3 10,5 0,0 1,0 1,1 1,0 2,0 3,1 0,0 1,0 2,1 1,0 1,0 2,1 1,0 2,0 2,1 1,0 2,0 3,1 1,0 1,0 2,0 1,1 2,1 3,1 0,1 1,1 1,1 1,0 2,1 3,1 1,0 1,1 2,1 1,0 2,0 3,1l2 0c1,0 2,1 3,1 0,0 1,0 1,1 1,0 2,0 3,0 1,1 1,1 2,1 1,0 2,0 3,1 1,0 1,0 2,0 1,0 2,0 3,1l1 0c7,1 15,3 22,3l1 0c1,1 2,1 4,1l0 0c2,0 3,0 4,0l1 0c2,0 3,0 4,0l1 0c1,0 3,0 4,0l1 0c1,0 3,0 4,0l1 0c1,0 2,0 4,0l0 0c2,0 3,0 5,0l0 0c42,-2 84,-17 119,-45l0 0c7,-5 13,-11 19,-17 10,-10 10,-26 0,-36 -10,-10 -26,-10 -36,0 -63,63 -165,63 -228,0 -64,-63 -64,-165 0,-229 63,-63 165,-63 228,0l0 0 1 1c10,10 26,10 36,0 10,-10 10,-26 0,-36l-1 -1 0 0c-26,-26 -57,-43 -89,-53l0 0c-2,-1 -4,-1 -5,-2l0 0c-2,0 -4,0 -5,-1l0 0c-5,-1 -10,-2 -15,-3l0 0c-7,-1 -14,-2 -21,-2l0 0c-3,-1 -7,-1 -10,-1l0 0c-2,0 -3,0 -5,0l0 0c-2,0 -3,0 -5,0l0 0c-2,0 -4,0 -5,0l0 0c-2,0 -4,1 -5,1l0 0c-2,0 -4,0 -5,0l0 0c-2,0 -4,0 -6,1l0 0c-1,0 -3,0 -5,0l0 0c-1,1 -3,1 -5,1l0 0c-1,0 -3,1 -5,1l0 0c-1,0 -3,1 -5,1l0 0c-1,0 -3,1 -5,1l0 0c-1,1 -3,1 -5,1l0 0c-1,1 -3,1 -5,2l0 0c-1,0 -3,1 -5,1l0 0c-1,1 -3,1 -4,2l0 0c-2,1 -4,1 -5,2l0 0c-2,0 -3,1 -5,2l0 0c-2,0 -3,1 -5,2l0 0c-1,0 -3,1 -5,2l0 0c-1,1 -3,1 -4,2l0 0c-2,1 -3,2 -5,2l0 0c-1,1 -3,2 -5,3 -1,1 -3,2 -4,3l0 0c-2,0 -3,1 -5,2l0 0c-1,1 -3,2 -4,3l0 0c-2,1 -3,2 -4,3l0 0c-2,1 -3,2 -5,3 -1,1 -3,2 -4,3l0 0c-1,2 -3,3 -4,4 -2,1 -3,2 -4,3l0 0c-2,1 -3,3 -4,4 -2,1 -3,2 -4,4 -2,1 -3,2 -4,3zm283 177c1,-9 2,-17 2,-26 0,-9 -1,-17 -2,-26l-1 0c-2,-11 -12,-20 -24,-20 -13,0 -24,11 -24,25 0,2 0,3 0,5l0 0c1,5 2,10 2,16 0,6 -1,11 -2,16l0 0c0,2 0,3 0,5 0,14 11,25 24,25 12,0 22,-9 24,-20l1 0zm119 113l1 0c0,0 0,-1 0,-1 23,-41 35,-88 35,-138 0,-51 -13,-98 -35,-139 -5,-9 -13,-14 -23,-14 -14,0 -25,11 -25,25 0,5 1,9 3,13 19,34 30,73 30,115 0,41 -11,80 -29,114l0 0c-2,3 -3,8 -3,12 0,14 11,26 25,26 9,0 17,-5 21,-13l0 0zm-44 -254l0 0 0 0z"/>
   </g>
  </g>
 </g>
</svg>
