<?xml version="1.0" encoding="UTF-8"?>
<!DOCTYPE svg PUBLIC "-//W3C//DTD SVG 1.1//EN" "http://www.w3.org/Graphics/SVG/1.1/DTD/svg11.dtd">
<!-- Creator: CorelDRAW X7 -->
<svg xmlns="http://www.w3.org/2000/svg" xml:space="preserve" width="43.3492mm" height="43.3492mm" version="1.1" style="shape-rendering:geometricPrecision; text-rendering:geometricPrecision; image-rendering:optimizeQuality; fill-rule:evenodd; clip-rule:evenodd"
viewBox="0 0 4335 4335"
 xmlns:xlink="http://www.w3.org/1999/xlink">
 <defs>
  <style type="text/css">
   <![CDATA[
    .fil1 {fill:#FEFEFE}
    .fil0 {fill:#1D1819}
   ]]>
  </style>
 </defs>
 <g id="Layer_x0020_1">
  <metadata id="CorelCorpID_0Corel-Layer"/>
  <g id="_891832240">
   <rect class="fil0" width="4335" height="4335" rx="799" ry="799"/>
   <g>
    <path class="fil1" d="M2953 1693c136,301 136,648 0,949l1 0c-10,22 -16,47 -16,73 0,98 80,178 178,178 75,0 138,-46 165,-111 171,-387 173,-830 5,-1217 -23,-72 -90,-123 -169,-123 -99,0 -178,80 -178,178 0,26 5,50 15,73l-1 0zm-927 702l299 -172 0 0c10,-6 19,-15 25,-26 19,-33 8,-76 -26,-95l-299 -172 -293 -170c-11,-8 -25,-13 -40,-13 -39,0 -70,32 -70,70l0 346 0 345 0 0c0,11 3,23 10,34 19,34 61,45 95,26l295 -170c1,-1 2,-2 4,-3zm-808 -908c-376,377 -376,988 0,1364 377,377 988,377 1364,0 71,-70 71,-184 0,-255 -70,-70 -184,-70 -255,0l0 0c-236,236 -618,236 -854,0 -235,-235 -235,-618 0,-854 236,-235 618,-235 854,0 71,71 185,71 255,0 71,-70 71,-184 0,-255l0 0c-376,-376 -987,-376 -1364,0zm-389 -389c-9,9 -18,19 -27,28 -9,9 -18,19 -27,29 -8,9 -17,19 -25,28 -8,10 -17,20 -25,30 -8,10 -16,20 -24,30 -7,10 -15,20 -23,30 -7,10 -14,21 -22,31 -7,10 -14,21 -21,31l0 0c-7,11 -13,21 -20,32 -7,11 -13,21 -20,32 -6,11 -12,22 -18,32 -6,11 -12,22 -18,33l0 0c-6,11 -11,22 -17,33l0 0c-5,11 -11,22 -16,34l0 0c-5,11 -10,22 -15,33 -5,12 -10,23 -14,34l0 0c-5,12 -9,23 -14,35l0 0c-4,11 -8,23 -12,34l0 0c-4,12 -8,23 -12,35l0 0c-4,12 -7,23 -11,35l0 0c-3,12 -6,23 -10,35l0 0c-3,12 -6,24 -9,35l0 0c-3,12 -5,24 -8,36l0 0c-2,12 -5,24 -7,36l0 0c-3,12 -5,24 -7,35l0 0c-2,12 -4,24 -5,36l0 0c-2,12 -4,24 -5,36l0 0c-2,12 -3,25 -4,37l0 0c-1,12 -2,24 -3,36l0 0c-1,12 -2,24 -2,36l0 0c-1,12 -1,24 -2,36l0 0c0,24 0,49 0,73l0 0c1,12 1,24 2,36l0 0c0,12 1,24 2,36l0 0c1,12 2,24 3,36l0 0c1,13 2,25 4,37l0 0c1,12 3,24 5,36 1,12 3,24 5,36l0 0c2,12 4,23 7,35l0 0c4,24 10,48 15,72l0 0c3,11 6,23 9,35l0 0c4,12 7,23 10,35l0 0c7,24 15,47 23,70l0 0c73,208 192,403 358,569 3,3 7,7 10,10 6,5 11,11 17,16 4,4 8,8 12,12 5,4 10,9 15,13 4,4 9,8 13,12 5,4 10,9 15,13 5,4 9,8 14,12 5,4 9,8 14,12 5,4 10,8 15,12 4,3 9,7 14,11 5,4 10,7 15,11 4,4 9,7 14,11 5,4 10,8 15,11 5,4 10,7 15,10 5,4 10,8 15,11 5,4 10,7 14,10 6,4 11,7 16,11 5,3 10,6 15,9 5,3 10,7 16,10 5,3 10,6 15,9 5,3 10,7 16,10 5,3 10,5 15,8 5,3 11,7 16,10 5,2 9,4 14,7 23,12 46,24 69,35 4,2 7,4 11,5 7,4 13,6 20,9 4,2 8,4 12,6 7,3 13,6 20,8 4,2 8,4 13,6 6,3 13,5 20,8 4,2 8,3 12,5 7,2 14,5 21,7 4,2 8,3 13,5 6,2 13,5 20,7 4,1 8,3 12,4 7,3 14,5 21,7l13 4c7,2 14,4 21,6 4,1 8,2 12,4 7,2 15,4 22,6 3,1 7,1 11,2 7,2 15,4 23,6 3,1 6,2 9,2 8,2 17,4 25,6l4 1c54,11 107,20 161,25l3 0c9,1 19,2 29,3l5 0c9,1 19,2 28,2l6 1c10,0 19,0 28,1l7 0c9,0 18,1 27,1l6 0c10,0 19,0 29,0l5 0c10,0 19,-1 29,-1l4 0c11,0 21,-1 31,-1l1 0c302,-17 600,-124 850,-321l0 0c47,-37 93,-77 136,-120 71,-71 71,-186 0,-256 -71,-71 -186,-71 -257,0 -449,449 -1177,449 -1626,0 -449,-450 -449,-1177 0,-1626 449,-450 1177,-450 1626,0l0 0 2 1c71,71 186,71 257,0 71,-70 71,-185 0,-256l-2 -2 0 0c-185,-184 -405,-311 -639,-381l0 0c-12,-3 -23,-6 -35,-10l0 0c-12,-3 -24,-6 -35,-9l0 0c-36,-8 -72,-16 -107,-22l-1 0c-47,-8 -95,-14 -144,-17l0 0c-24,-2 -48,-3 -72,-3l0 0c-12,-1 -24,-1 -37,-1l0 0c-12,0 -24,0 -36,1l0 0c-12,0 -24,0 -36,1l0 0c-12,0 -24,1 -36,2l0 0c-12,1 -24,2 -37,3l0 0c-12,1 -24,2 -36,4l0 0c-12,1 -24,3 -36,5l0 0c-12,1 -24,3 -36,5l0 0c-12,2 -23,4 -35,7l0 0c-12,2 -24,5 -36,7l0 0c-12,3 -24,5 -36,8l0 0c-11,3 -23,6 -35,9l0 0c-12,4 -23,7 -35,10l0 0c-12,4 -23,7 -35,11l0 0c-12,4 -23,8 -35,12l0 0c-11,4 -23,8 -34,12l0 0c-12,5 -23,9 -35,14l0 0c-11,4 -22,9 -34,14l0 0c-11,5 -22,10 -33,15l0 0c-12,5 -23,11 -34,16l0 0c-11,6 -22,11 -33,17l0 0c-11,6 -22,12 -33,18 -10,6 -21,12 -32,18l0 0c-11,7 -21,13 -32,20l0 0c-11,7 -21,13 -32,20l0 0c-10,7 -21,14 -31,21l0 0c-10,8 -21,15 -31,23 -10,7 -20,15 -30,22l0 0c-10,8 -20,16 -30,24 -10,8 -20,17 -30,25l0 0c-9,8 -19,17 -29,25 -9,9 -19,18 -28,27 -9,9 -19,18 -28,27zm2012 1254c11,-59 17,-120 17,-183 0,-63 -6,-124 -17,-183l-1 0c-15,-83 -86,-145 -170,-145 -96,0 -174,80 -174,179 0,11 1,23 3,34l-1 0c7,37 11,76 11,115 0,39 -4,78 -11,115l1 0c-2,11 -3,22 -3,34 0,99 78,179 174,179 84,0 155,-62 170,-145l1 0zm853 806l1 -2c1,-1 2,-3 3,-5 160,-292 251,-627 251,-984 0,-359 -92,-696 -255,-990 -30,-57 -90,-96 -159,-96 -99,0 -179,80 -179,179 0,33 9,64 25,90 134,243 210,521 210,817 0,294 -75,570 -206,810l0 0c-16,27 -25,57 -25,90 0,99 81,180 179,180 66,0 124,-36 155,-89l0 0zm-313 -1808l0 0 0 0z"/>
   </g>
  </g>
 </g>
</svg>
