<?xml version="1.0" encoding="UTF-8" standalone="no"?>
<!-- Creator: CorelDRAW X7 -->

<svg
   xmlns:dc="http://purl.org/dc/elements/1.1/"
   xmlns:cc="http://creativecommons.org/ns#"
   xmlns:rdf="http://www.w3.org/1999/02/22-rdf-syntax-ns#"
   xmlns:svg="http://www.w3.org/2000/svg"
   xmlns="http://www.w3.org/2000/svg"
   xmlns:sodipodi="http://sodipodi.sourceforge.net/DTD/sodipodi-0.dtd"
   xmlns:inkscape="http://www.inkscape.org/namespaces/inkscape"
   xml:space="preserve"
   width="493"
   height="58"
   version="1.1"
   style="clip-rule:evenodd;fill-rule:evenodd;image-rendering:optimizeQuality;shape-rendering:geometricPrecision;text-rendering:geometricPrecision"
   viewBox="0 0 13044.169 1534.8854"
   id="svg15"
   sodipodi:docname="installer_banner.svg"
   inkscape:version="0.92.4 (5da689c313, 2019-01-14)"
   inkscape:export-filename="E:\Code\audio-band\logo\installer_banner.png"
   inkscape:export-xdpi="96"
   inkscape:export-ydpi="96"><metadata
   id="metadata19"><rdf:RDF><cc:Work
       rdf:about=""><dc:format>image/svg+xml</dc:format><dc:type
         rdf:resource="http://purl.org/dc/dcmitype/StillImage" /><dc:title /></cc:Work></rdf:RDF></metadata><sodipodi:namedview
   pagecolor="#ffffff"
   bordercolor="#666666"
   borderopacity="1"
   objecttolerance="10"
   gridtolerance="10"
   guidetolerance="10"
   inkscape:pageopacity="0"
   inkscape:pageshadow="2"
   inkscape:window-width="1920"
   inkscape:window-height="1027"
   id="namedview17"
   showgrid="false"
   inkscape:zoom="1.7333998"
   inkscape:cx="241.03224"
   inkscape:cy="110.96022"
   inkscape:window-x="-8"
   inkscape:window-y="193"
   inkscape:window-maximized="1"
   inkscape:current-layer="layer7"
   units="px"
   fit-margin-top="0"
   fit-margin-left="0"
   fit-margin-right="0"
   fit-margin-bottom="0" />
 <defs
   id="defs4">
  <style
   type="text/css"
   id="style2">
   <![CDATA[
    .fil0 {fill:#1D1819}
    .fil1 {fill:#1D1819;fill-rule:nonzero}
   ]]>
  </style>
 </defs>
 
<g
   inkscape:groupmode="layer"
   id="layer7"
   inkscape:label="Layer 2"><rect
     style="opacity:0.97000002;fill:#ffffff;fill-opacity:1;stroke:none;stroke-width:100.03218079;stroke-linecap:butt;stroke-linejoin:miter;stroke-miterlimit:4;stroke-dasharray:100.03218557, 100.03218557;stroke-dashoffset:0;stroke-opacity:1"
     id="rect1117"
     width="13046.526"
     height="1534.8854"
     x="-1.17845"
     y="4.0259065e-06" /></g><g
   inkscape:groupmode="layer"
   id="layer6"
   inkscape:label="Layer 1"
   sodipodi:insensitive="true"><g
     style="clip-rule:evenodd;fill-rule:evenodd;image-rendering:optimizeQuality;shape-rendering:geometricPrecision;text-rendering:geometricPrecision"
     id="Layer_x0020_1"
     transform="translate(-1.42845,-598.86462)">
  <metadata
   id="CorelCorpID_0Corel-Layer" />
  <g
   id="_853208464"
   transform="matrix(0.7138026,0,0,0.71933704,0.07154935,598.86461)"
   style="stroke-width:1.39554787">
   <g
   id="g9"
   style="stroke-width:1.39554787"
   transform="translate(15468.156)">
    <path
   class="fil0"
   d="m 1811,732 c 96,212 96,457 0,669 v 0 c -7,16 -11,34 -11,52 0,69 57,125 126,125 52,0 98,-32 116,-78 121,-272 122,-585 4,-858 -17,-51 -64,-87 -120,-87 -69,0 -125,56 -125,125 0,19 4,36 11,52 z m -654,496 211,-122 v 0 c 7,-4 13,-10 18,-18 13,-24 5,-54 -18,-67 L 1157,899 950,780 c -8,-6 -18,-9 -29,-9 -27,0 -49,22 -49,49 v 243 244 0 c 0,8 2,16 7,24 13,24 43,32 67,18 l 208,-120 c 1,0 2,-1 3,-1 z M 587,587 c -265,266 -265,696 0,962 266,266 697,266 962,0 50,-50 50,-130 0,-180 -49,-49 -130,-49 -179,0 v 0 c -167,167 -436,167 -603,0 -166,-166 -166,-436 0,-602 167,-166 436,-166 603,0 49,50 130,50 179,0 50,-50 50,-130 0,-180 v 0 C 1284,322 853,322 587,587 Z M 313,312 c -7,7 -13,14 -19,20 -7,7 -13,14 -19,20 -6,7 -12,14 -18,21 -6,7 -12,14 -17,21 -6,6 -12,14 -17,21 -6,7 -11,14 -16,21 -6,7 -11,15 -16,22 -5,7 -10,14 -15,22 v 0 c -5,7 -10,15 -14,22 -5,8 -10,15 -14,23 -4,7 -9,15 -13,23 -4,7 -9,15 -13,23 v 0 c -4,7 -8,15 -12,23 v 0 c -3,8 -7,16 -11,24 v 0 c -3,8 -7,15 -10,23 -4,8 -7,16 -11,24 v 0 c -3,8 -6,16 -9,25 v 0 c -3,8 -6,16 -9,24 v 0 c -3,8 -5,16 -8,24 v 0 c -3,9 -5,17 -8,25 v 0 c -2,8 -5,17 -7,25 v 0 c -2,8 -4,17 -6,25 v 0 c -2,8 -4,17 -6,25 v 0 c -2,8 -4,17 -5,25 v 0 c -2,8 -3,17 -5,25 v 0 c -1,9 -2,17 -4,26 v 0 c -1,8 -2,17 -3,25 v 0 c -1,9 -2,17 -3,26 v 0 c -1,8 -1,17 -2,25 v 0 c -1,9 -1,17 -1,26 v 0 c -1,8 -1,17 -1,25 v 0 c -1,17 -1,34 0,51 v 0 c 0,9 0,17 1,26 v 0 c 0,9 0,17 1,26 v 0 c 1,8 1,17 2,25 v 0 c 1,9 2,17 3,26 v 0 c 1,8 2,16 3,25 2,8 3,17 4,25 v 0 c 2,9 3,17 5,26 v 0 c 3,16 7,33 11,50 v 0 c 2,8 4,16 6,25 v 0 c 2,8 5,16 7,25 v 0 c 5,16 10,32 16,49 v 0 c 51,146 136,284 253,401 2,3 5,5 7,7 4,4 8,8 11,11 3,3 6,6 9,9 4,3 7,6 11,9 3,3 6,6 9,8 3,4 7,7 11,10 3,3 6,5 9,8 4,3 7,6 10,9 4,2 7,5 11,8 3,3 6,5 10,8 3,3 7,5 10,8 3,2 7,5 10,8 4,2 7,5 11,7 3,3 7,5 10,8 4,2 7,5 11,7 3,3 7,5 10,7 4,3 8,5 11,8 4,2 7,4 10,6 4,2 8,5 12,7 3,2 7,5 10,7 4,2 8,4 12,6 3,2 7,4 10,6 4,3 8,5 12,7 3,2 6,4 9,5 17,9 33,17 50,25 2,1 5,3 7,4 5,2 9,4 14,6 3,1 6,3 9,4 4,2 9,4 14,6 3,1 6,3 9,4 4,2 9,4 14,6 3,1 6,2 9,3 4,2 9,4 14,5 3,1 6,3 9,4 5,1 10,3 14,5 3,1 6,2 9,3 5,1 10,3 15,4 l 9,3 c 5,2 10,3 15,4 3,1 5,2 8,3 5,1 11,3 16,4 2,1 5,1 7,2 6,1 11,3 17,4 2,1 4,1 6,2 6,1 12,2 18,4 h 3 c 37,8 75,14 113,18 h 2 c 7,1 14,1 20,2 h 4 c 7,1 13,1 20,2 h 5 c 6,0 12,1 19,1 h 5 c 6,0 13,0 19,0 h 4 c 7,1 14,1 21,0 h 3 c 7,0 14,0 21,0 h 3 c 7,0 14,-1 21,-1 h 1 c 213,-12 423,-87 600,-226 v 0 c 33,-26 65,-54 95,-85 50,-50 50,-131 0,-181 -50,-50 -131,-50 -180,0 -317,317 -831,317 -1147,0 -317,-316 -317,-830 0,-1147 316,-316 830,-316 1147,0 v 0 l 1,2 c 50,50 131,50 181,0 50,-50 50,-131 0,-181 l -2,-1 v -1 C 1691,182 1536,93 1371,44 v 0 c -8,-2 -17,-5 -25,-7 v 0 c -8,-2 -17,-4 -25,-6 v 0 c -25,-7 -50,-12 -75,-16 v 0 C 1212,9 1178,5 1144,3 v 0 c -17,-1 -34,-2 -51,-3 v 0 c -9,0 -17,0 -26,0 v 0 c -8,0 -17,0 -25,0 v 0 c -9,1 -18,1 -26,1 v 0 c -9,1 -17,1 -26,2 v 0 c -8,0 -17,1 -25,2 v 0 c -9,1 -17,2 -26,3 v 0 c -8,1 -17,2 -25,3 v 0 c -9,1 -17,3 -25,4 v 0 c -9,1 -17,3 -26,5 v 0 c -8,1 -16,3 -25,5 v 0 c -8,2 -17,4 -25,6 v 0 c -8,2 -17,4 -25,6 v 0 c -8,2 -16,5 -25,7 v 0 c -8,2 -16,5 -24,8 v 0 c -8,2 -17,5 -25,8 v 0 c -8,3 -16,6 -24,9 v 0 c -8,3 -16,6 -24,9 v 0 c -8,3 -16,7 -24,10 v 0 c -8,4 -16,7 -24,11 v 0 c -8,4 -16,7 -24,11 v 0 c -7,4 -15,8 -23,12 v 0 c -8,4 -15,8 -23,13 -8,4 -15,8 -23,13 v 0 c -8,4 -15,9 -23,13 v 0 c -7,5 -14,10 -22,15 v 0 c -7,5 -15,10 -22,15 v 0 c -7,5 -14,10 -22,15 -7,6 -14,11 -21,16 v 0 c -7,6 -14,12 -21,17 -7,6 -14,12 -21,18 v 0 c -7,6 -14,12 -20,18 -7,6 -14,12 -20,18 -7,7 -14,13 -20,19 z m 1419,885 c 8,-42 12,-85 12,-129 0,-44 -4,-88 -12,-130 l -1,1 c -10,-59 -60,-103 -120,-103 -68,0 -122,57 -122,127 0,8 0,16 2,24 h -1 c 5,26 8,53 8,81 0,28 -3,55 -8,81 h 1 c -2,8 -2,16 -2,24 0,70 54,126 122,126 60,0 110,-44 120,-102 z m 602,568 v -1 c 1,-1 2,-2 3,-4 112,-206 176,-442 176,-693 0,-254 -65,-492 -179,-699 -21,-40 -64,-68 -112,-68 -70,0 -127,57 -127,127 0,23 7,45 18,63 94,171 148,368 148,577 0,207 -53,401 -146,571 v 0 c -10,19 -17,40 -17,64 0,69 57,126 127,126 46,0 87,-25 109,-63 z M 2113,490 Z"
   id="path7"
   inkscape:connector-curvature="0"
   style="fill:#1d1819;stroke-width:1.39554787" />
   </g>
   
  </g>
 </g></g></svg>