<?xml version="1.0" encoding="UTF-8" standalone="no"?>
<!-- Created with Inkscape (http://www.inkscape.org/) -->

<svg
   xmlns:dc="http://purl.org/dc/elements/1.1/"
   xmlns:cc="http://creativecommons.org/ns#"
   xmlns:rdf="http://www.w3.org/1999/02/22-rdf-syntax-ns#"
   xmlns:svg="http://www.w3.org/2000/svg"
   xmlns="http://www.w3.org/2000/svg"
   xmlns:sodipodi="http://sodipodi.sourceforge.net/DTD/sodipodi-0.dtd"
   xmlns:inkscape="http://www.inkscape.org/namespaces/inkscape"
   width="493"
   height="312"
   viewBox="0 0 130.43958 82.550002"
   version="1.1"
   id="svg8"
   inkscape:version="0.92.4 (5da689c313, 2019-01-14)"
   sodipodi:docname="installer_background.svg"
   inkscape:export-filename="E:\Code\audio-band\logo\installer_background.png"
   inkscape:export-xdpi="96"
   inkscape:export-ydpi="96">
  <defs
     id="defs2" />
  <sodipodi:namedview
     id="base"
     pagecolor="#ffffff"
     bordercolor="#666666"
     borderopacity="1.0"
     inkscape:pageopacity="0.0"
     inkscape:pageshadow="2"
     inkscape:zoom="1.979899"
     inkscape:cx="151.27031"
     inkscape:cy="179.12216"
     inkscape:document-units="mm"
     inkscape:current-layer="_602653904-3"
     showgrid="false"
     inkscape:window-width="1920"
     inkscape:window-height="1027"
     inkscape:window-x="-8"
     inkscape:window-y="193"
     inkscape:window-maximized="1"
     units="px" />
  <metadata
     id="metadata5">
    <rdf:RDF>
      <cc:Work
         rdf:about="">
        <dc:format>image/svg+xml</dc:format>
        <dc:type
           rdf:resource="http://purl.org/dc/dcmitype/StillImage" />
        <dc:title />
      </cc:Work>
    </rdf:RDF>
  </metadata>
  <g
     inkscape:label="Layer 1"
     inkscape:groupmode="layer"
     id="layer1"
     transform="translate(0,-214.44998)"
     sodipodi:insensitive="true">
    <rect
       style="opacity:0.97000002;fill:#ffffff;fill-opacity:1;stroke:none;stroke-width:4.23333311;stroke-linecap:butt;stroke-linejoin:miter;stroke-miterlimit:4;stroke-dasharray:none;stroke-opacity:1"
       id="rect819"
       width="130.43959"
       height="82.550003"
       x="0"
       y="214.44998" />
  </g>
  <g
     inkscape:groupmode="layer"
     id="layer2"
     inkscape:label="Layer 2">
    <g
       transform="matrix(0.00999984,0,0,0.00999984,15.992956,52.202383)"
       style="clip-rule:evenodd;fill-rule:evenodd;image-rendering:optimizeQuality;shape-rendering:geometricPrecision;text-rendering:geometricPrecision"
       id="Layer_x0020_1">
      <metadata
         id="CorelCorpID_0Corel-Layer" />
      <g
         id="_602653904">
        <g
           transform="translate(-359.08318,-1719.8192)"
           style="clip-rule:evenodd;fill-rule:evenodd;image-rendering:optimizeQuality;shape-rendering:geometricPrecision;text-rendering:geometricPrecision"
           id="Layer_x0020_1-7">
          <metadata
             id="CorelCorpID_0Corel-Layer-1" />
          <g
             id="_602653904-3">
            <g
               id="g11"
               transform="translate(-555.63382,-498.93658)">
              <path
                 inkscape:connector-curvature="0"
                 class="fil1"
                 d="m 1537,879 c 70,157 70,337 0,494 v 0 c -5,12 -8,24 -8,38 0,51 41,93 92,93 39,0 73,-24 86,-58 90,-201 90,-432 3,-634 -12,-37 -47,-64 -88,-64 -51,0 -93,42 -93,93 0,14 3,26 8,38 z m -483,366 156,-90 v 0 c 5,-3 10,-8 13,-13 10,-18 4,-40 -13,-50 l -156,-90 -152,-88 c -6,-4 -14,-6 -22,-6 -20,0 -36,16 -36,36 v 180 179 0 c 0,6 2,12 5,18 10,17 32,23 49,14 l 154,-89 c 1,-1 1,-1 2,-1 z M 634,772 c -196,196 -196,514 0,710 196,196 514,196 710,0 36,-37 36,-96 0,-133 -37,-36 -96,-36 -133,0 v 0 c -123,123 -322,123 -444,0 -123,-122 -123,-321 0,-444 122,-123 321,-123 444,0 37,37 96,37 133,0 36,-37 36,-96 0,-133 v 0 C 1148,576 830,576 634,772 Z M 431,570 c -4,4 -9,9 -14,14 -4,5 -9,10 -13,15 -5,5 -9,10 -14,15 -4,5 -8,10 -13,15 -4,6 -8,11 -12,16 -4,5 -8,10 -12,16 -4,5 -8,10 -11,16 -4,5 -8,11 -11,16 v 0 c -4,6 -8,11 -11,17 -3,5 -7,11 -10,16 -3,6 -7,11 -10,17 -3,6 -6,11 -9,17 v 0 c -3,6 -6,12 -9,17 v 0 c -3,6 -5,12 -8,18 v 0 c -3,6 -5,11 -8,17 -3,6 -5,12 -7,18 v 0 c -3,6 -5,12 -7,18 v 0 c -3,6 -5,12 -7,18 v 0 c -2,6 -4,12 -6,18 v 0 c -2,6 -4,12 -6,18 v 0 c -1,6 -3,12 -5,18 v 0 c -2,6 -3,13 -5,19 v 0 c -1,6 -3,12 -4,18 v 0 c -1,6 -2,13 -4,19 v 0 c -1,6 -2,12 -3,18 v 0 c -1,7 -2,13 -3,19 v 0 c -1,6 -2,13 -2,19 v 0 c -1,6 -2,12 -2,19 v 0 c -1,6 -2,12 -2,18 v 0 c -1,7 -1,13 -1,19 v 0 c 0,7 -1,13 -1,19 v 0 c 0,13 0,25 0,38 v 0 c 0,6 1,13 1,19 v 0 c 0,6 0,12 1,19 v 0 c 0,6 1,12 2,19 v 0 c 0,6 1,12 2,18 v 0 c 0,7 1,13 2,19 1,6 2,13 3,19 v 0 c 1,6 2,12 3,18 v 0 c 3,13 5,25 8,37 v 0 c 2,7 3,13 5,19 v 0 c 2,6 4,12 5,18 v 0 c 4,12 8,24 12,36 v 0 c 38,109 100,210 186,297 2,1 4,3 6,5 3,3 5,5 8,8 2,2 5,4 7,6 2,3 5,5 8,7 2,2 4,4 6,6 3,3 5,5 8,7 2,2 5,4 7,6 3,2 5,4 8,7 2,2 5,4 7,6 3,2 5,4 8,6 2,2 5,4 7,5 3,2 5,4 8,6 2,2 5,4 8,6 2,2 5,3 7,5 3,2 6,4 8,6 3,2 5,3 8,5 2,2 5,4 8,6 3,1 5,3 7,4 3,2 6,4 9,6 2,1 5,3 8,4 2,2 5,4 8,5 3,2 5,3 8,5 3,1 5,3 8,5 3,1 5,2 7,3 12,7 24,13 37,19 1,1 3,2 5,2 4,2 7,4 10,5 3,1 5,2 7,3 3,2 7,3 10,4 2,1 5,2 7,3 3,2 7,3 10,4 3,1 5,2 7,3 3,1 7,3 10,4 3,1 5,2 7,2 4,2 7,3 11,4 2,1 4,1 6,2 4,1 7,3 11,4 l 7,2 c 3,1 7,2 10,3 3,1 5,1 7,2 4,1 7,2 11,3 2,0 4,1 6,1 4,1 8,2 12,3 1,1 3,1 5,1 4,1 8,2 13,3 l 2,1 c 28,6 56,10 84,13 h 1 c 5,1 10,1 15,1 l 3,1 c 5,0 9,0 14,1 h 4 c 4,0 9,0 14,1 h 4 c 4,0 9,0 14,0 h 3 c 5,0 10,0 15,0 h 3 c 5,0 10,0 15,0 h 2 c 5,-1 11,-1 16,-1 h 1 c 157,-9 312,-64 442,-167 v 0 c 24,-19 48,-40 70,-62 37,-37 37,-97 0,-134 -36,-37 -96,-37 -133,0 -234,234 -613,234 -846,0 -234,-234 -234,-612 0,-846 233,-234 612,-234 846,0 v 0 l 1,1 c 37,37 97,37 133,0 37,-37 37,-97 0,-133 l -1,-1 v 0 C 1448,474 1334,408 1212,371 v 0 c -6,-1 -12,-3 -18,-5 v 0 c -6,-1 -13,-3 -19,-4 v 0 c -18,-5 -37,-9 -55,-12 v 0 c -25,-4 -50,-7 -75,-9 v 0 c -13,-1 -26,-1 -38,-2 v 0 c -7,0 -13,0 -19,0 v 0 c -6,0 -13,0 -19,0 v 0 c -6,0 -13,1 -19,1 v 0 c -6,0 -12,1 -19,1 v 0 c -6,1 -12,1 -19,2 v 0 c -6,0 -12,1 -18,2 v 0 c -7,0 -13,1 -19,2 v 0 c -6,1 -13,2 -19,3 v 0 c -6,1 -12,2 -18,3 v 0 c -7,2 -13,3 -19,4 v 0 c -6,2 -12,3 -18,5 v 0 c -7,1 -13,3 -19,4 v 0 c -6,2 -12,4 -18,5 v 0 c -6,2 -12,4 -18,6 v 0 c -6,2 -12,4 -18,6 v 0 c -6,2 -12,4 -18,7 v 0 c -6,2 -12,4 -18,7 v 0 c -6,2 -12,5 -18,7 v 0 c -6,3 -12,5 -17,8 v 0 c -6,3 -12,5 -18,8 v 0 c -6,3 -11,6 -17,9 v 0 c -6,3 -11,6 -17,9 -6,3 -11,7 -17,10 v 0 c -6,3 -11,7 -17,10 v 0 c -5,4 -11,7 -16,11 v 0 c -6,3 -11,7 -16,11 v 0 c -6,4 -11,7 -16,11 -6,4 -11,8 -16,12 v 0 c -5,4 -11,8 -16,13 -5,4 -10,8 -15,12 v 0 c -5,5 -10,9 -15,14 -5,4 -10,9 -15,13 -5,5 -10,10 -15,15 z m 1047,652 c 6,-31 9,-63 9,-95 0,-33 -3,-65 -9,-96 v 0 c -8,-43 -45,-75 -89,-75 -50,0 -90,42 -90,93 0,6 0,12 1,18 v 0 c 4,19 6,39 6,60 0,20 -2,40 -6,60 v 0 c -1,5 -1,11 -1,17 0,52 40,94 90,94 44,0 81,-33 89,-76 z m 444,419 h 1 c 0,-1 1,-2 1,-3 84,-152 131,-327 131,-512 0,-187 -48,-362 -133,-515 -15,-30 -46,-50 -82,-50 -52,0 -94,41 -94,93 0,17 5,33 13,47 70,126 110,271 110,425 0,153 -39,296 -108,421 v 0 c -8,14 -12,30 -12,47 0,52 41,94 93,94 34,0 64,-19 80,-47 z M 1759,701 Z"
                 id="path9" />
            </g>
            <path
               inkscape:connector-curvature="0"
               class="fil2"
               d="m -766.16049,2064.6962 v -93.5663 c 0,-13.1952 -2.39913,-25.1909 -7.1974,-36.5868 -4.79827,-11.3958 -11.99567,-21.5922 -20.39264,-29.9891 -8.39697,-8.397 -17.9935,-14.9946 -29.38939,-19.7929 -11.39589,-4.7982 -23.99134,-7.1974 -36.5868,-7.1974 -12.59545,0 -25.19091,2.3992 -36.58679,7.1974 -11.39589,4.7983 -20.99243,11.3959 -29.3894,19.7929 -8.99675,8.3969 -15.59437,18.5933 -20.39264,29.9891 -4.79827,11.3959 -7.1974,23.3916 -7.1974,36.5868 v 93.5663 z m 93.56624,186.5327 h -93.56624 v -93.5663 h -187.13246 v 93.5663 h -93.56625 v -280.099 c 0,-25.7907 5.3981,-50.3818 14.9946,-73.1735 9.5965,-22.7918 22.7918,-42.5846 40.1855,-59.3786 16.79394,-16.7939 36.5868,-30.5889 58.77879,-40.1855 22.79178,-9.5965 47.3829,-14.9946 73.17359,-14.9946 25.79069,0 50.38182,5.3981 73.17359,14.9946 22.192,9.5966 42.58464,23.3916 59.37857,40.1855 16.79394,16.794 29.98918,36.5868 40.1855,59.3786 9.59654,22.7917 14.39481,47.3828 14.39481,73.1735 z m 325.68246,-40.1855 c -7.1974,5.9978 -14.99459,12.5954 -23.39156,17.9935 -7.79718,5.9978 -16.79394,10.7961 -25.19091,14.9946 -8.99675,4.1985 -18.59329,7.7972 -27.59004,10.1963 -9.59653,2.3991 -19.19307,3.5987 -29.38939,3.5987 -20.99243,0 -41.38507,-3.5987 -60.57814,-11.3959 -18.59329,-7.1974 -35.38723,-17.9935 -49.78204,-32.3883 -13.79502,-13.795 -25.1909,-31.1888 -33.58787,-50.9816 -7.79719,-20.3927 -11.99567,-42.5846 -11.99567,-67.7756 v -193.1303 h 88.76796 v 193.1303 c 0,11.3959 1.79935,22.192 5.39805,31.1888 3.5987,9.5965 8.39697,17.3937 14.39481,23.3915 5.99783,6.5977 13.19524,11.3959 21.59221,14.3949 7.79718,3.5987 16.79393,4.7982 25.79069,4.7982 9.59654,0 17.9935,-1.7993 26.39047,-5.9978 7.79719,-4.1985 14.99459,-10.1963 20.99243,-16.794 6.59761,-7.1974 11.39588,-14.9945 14.3948,-23.9913 3.5987,-8.397 5.39805,-17.3937 5.39805,-26.9903 v -193.1303 h 88.76797 v 349.0741 h -20.99243 z m 456.43529,40.1855 H 87.931287 l -34.78746,-47.9827 c -8.396973,7.7972 -17.393723,14.9946 -26.990263,21.5922 -9.59654,6.5976 -19.1930703,12.5954 -29.9891803,17.3937 -10.1963157,4.7983 -20.9924197,8.9968 -31.7885227,11.3959 -10.796105,2.9989 -22.191992,4.1985 -33.587879,4.1985 -24.591125,0 -47.382902,-4.1985 -68.975112,-13.795 -22.19198,-8.9968 -40.78527,-22.192 -56.97943,-38.3862 -16.19415,-16.1941 -28.78961,-35.987 -38.38614,-58.179 -9.59654,-22.7918 -13.79502,-47.3829 -13.79502,-73.7734 0,-26.3904 4.19848,-50.9816 13.79502,-73.1736 9.59653,-22.7918 22.19199,-42.5846 38.38614,-58.7788 16.19416,-16.7939 34.78745,-29.3893 56.97943,-38.9859 21.59221,-9.5965 44.383987,-13.795 68.975112,-13.795 7.797185,0 16.194155,0.5998 24.591124,1.7994 8.396971,1.1995 16.194157,3.5987 23.991343,5.9978 8.39697,2.9989 15.5943747,7.1974 22.7917747,11.9957 6.59762,4.7982 12.5954503,10.7961 17.3937203,17.3937 V 1763.0051 H 109.5235 Z m -89.967556,-177.536 c 0,-11.9956 -2.39913,-23.9913 -7.1974,-35.3872 -4.1984903,-11.3959 -10.7961003,-21.5923 -18.5932903,-30.589 -8.3969697,-8.397 -17.9935057,-15.5944 -28.7896097,-20.9924 -10.196321,-5.3981 -22.191992,-7.7972 -34.187662,-7.7972 -11.995671,0 -23.391558,1.7993 -34.187662,6.5976 -10.7961,4.1985 -20.39264,10.1963 -28.18983,18.5933 -7.79718,7.7972 -14.3948,17.9935 -18.59329,29.9892 -4.79826,11.3959 -7.1974,24.5912 -7.1974,39.5857 0,13.1953 2.39914,25.1909 7.1974,36.5868 4.19849,11.3959 10.79611,21.5922 18.59329,30.589 7.79719,8.397 17.39373,15.5944 28.18983,20.3926 10.796104,4.7983 22.191991,7.1974 34.187662,7.1974 11.99567,0 23.991341,-2.3991 34.187662,-7.7971 10.796104,-5.3981 20.39264,-12.5955 28.7896097,-20.9925 7.79719,-8.9967 14.3948,-19.193 18.5932903,-30.5889 4.79827,-11.3959 7.1974,-23.3916 7.1974,-35.3873 z M 282.26118,1807.3891 c 0,7.7972 -1.79935,15.5943 -4.79827,22.7918 -2.99892,7.1974 -7.1974,13.795 -12.59545,18.5932 -5.39806,5.3981 -11.99567,9.5966 -19.19308,13.1953 -7.1974,2.9989 -14.99459,4.7982 -23.39156,4.7982 -8.39696,0 -16.19415,-1.7993 -23.39155,-4.7982 -7.19741,-3.5987 -13.79502,-7.7972 -18.59329,-13.1953 -5.39805,-4.7982 -9.59654,-11.3958 -13.19524,-18.5932 -2.99892,-7.1975 -4.79827,-14.9946 -4.79827,-22.7918 0,-8.397 1.79935,-16.1942 4.79827,-23.3916 3.5987,-7.1974 7.79719,-13.1952 13.19524,-18.5933 4.79827,-5.398 11.39588,-9.5965 18.59329,-13.1952 7.1974,-2.9989 14.99459,-4.1985 23.39155,-4.1985 8.39697,0 16.19416,1.1996 23.39156,4.1985 7.19741,3.5987 13.79502,7.7972 19.19308,13.1952 5.39805,5.3981 9.59653,11.3959 12.59545,18.5933 2.99892,7.1974 4.79827,14.9946 4.79827,23.3916 z m -15.59437,443.8398 h -89.36775 v -349.0741 h 89.36775 z m 406.05345,-177.536 c 0,26.3905 -4.79827,50.3819 -14.3948,73.1736 -8.99675,22.192 -22.19199,41.9849 -37.78636,58.179 -16.19416,16.1942 -35.38723,29.3894 -56.97944,38.986 -21.59221,8.9967 -44.98377,13.795 -69.57489,13.795 -24.59113,0 -47.3829,-4.7983 -68.97511,-13.795 -22.19199,-9.5966 -40.78528,-22.7918 -56.97944,-38.986 -16.19415,-16.1941 -28.7896,-35.987 -38.38614,-58.179 -9.59654,-22.7917 -13.79502,-46.7831 -13.79502,-73.1736 0,-26.3904 4.19848,-50.9816 13.79502,-73.7734 9.59654,-22.7918 22.19199,-41.9848 38.38614,-58.7787 16.19416,-16.1942 34.78745,-28.7896 56.97944,-38.3862 21.59221,-9.5965 44.38398,-13.795 68.97511,-13.795 24.59112,0 47.98268,4.1985 69.57489,13.1952 21.59221,8.397 40.78528,20.9925 56.97944,37.1866 15.59437,16.1942 28.78961,35.987 37.78636,58.7788 9.59653,22.1919 14.3948,47.9827 14.3948,75.5727 z m -89.96753,0 c 0,-14.3948 -2.39913,-27.59 -7.1974,-38.9859 -4.79827,-11.3959 -10.7961,-21.5923 -18.59329,-29.9892 -8.39697,-8.397 -17.99351,-14.9946 -28.78961,-19.1931 -10.19632,-4.7983 -22.19199,-6.5976 -34.18766,-6.5976 -11.99567,0 -23.39156,1.7993 -34.18766,6.5976 -10.79611,4.1985 -20.39264,10.7961 -28.18983,19.1931 -7.79719,8.3969 -14.3948,18.5933 -18.59329,29.9892 -4.79827,11.3959 -7.1974,24.5911 -7.1974,38.9859 0,13.1953 2.39913,25.7907 7.1974,37.7864 4.19849,11.3959 10.7961,21.5922 18.59329,29.9892 7.79719,8.3969 17.39372,14.9946 28.18983,19.7928 10.7961,4.7983 22.19199,7.1974 34.18766,7.1974 11.99567,0 23.99134,-2.3991 34.18766,-6.5976 10.7961,-4.7982 20.39264,-10.7961 28.78961,-19.1931 7.79719,-8.3969 13.79502,-18.5932 18.59329,-29.9891 4.79827,-11.9957 7.1974,-24.5912 7.1974,-38.986 z m 709.54397,37.7864 c 0,19.1931 -3.5987,37.1866 -10.7961,54.5803 -7.7972,16.7939 -17.3937,31.1887 -30.589,44.384 -12.5954,12.5954 -26.9902,22.7918 -44.384,29.9892 -16.7939,7.1974 -34.7874,10.7961 -54.5803,10.7961 H 918.03178 v -467.8312 h 233.91552 c 19.7929,0 37.7864,4.1985 54.5803,11.3959 17.3938,7.1974 31.7886,17.3937 44.384,29.9892 13.1953,13.1952 22.7918,27.59 30.589,44.384 7.1974,17.3937 10.7961,35.3872 10.7961,54.5802 0,8.9968 -1.1996,17.9935 -3.5987,26.9903 -2.3992,8.9967 -5.3981,17.9935 -10.1963,26.3904 -4.1985,8.397 -9.5966,16.1942 -15.5944,23.3916 -5.9978,6.5976 -12.5955,12.5954 -19.7929,16.7939 7.1974,4.1985 14.3948,10.1963 20.3927,16.794 5.9978,7.1974 11.3959,14.9946 15.5943,23.3916 4.1985,8.9967 7.7972,17.3937 10.1964,26.9902 1.7993,8.9968 2.9989,17.9936 2.9989,26.9903 z m -280.6987,46.1833 h 140.3493 c 6.5977,0 13.1953,-1.1995 18.5933,-3.5987 5.3981,-2.3991 10.7961,-5.398 14.9946,-9.5965 4.1985,-4.1985 7.1974,-9.5965 9.5965,-14.9946 2.3992,-5.398 3.5987,-11.9957 3.5987,-17.9935 0,-6.5976 -1.1995,-12.5955 -3.5987,-18.5933 -2.3991,-5.398 -5.398,-10.7961 -9.5965,-14.9946 -4.1985,-4.1985 -9.5965,-7.1974 -14.9946,-9.5965 -5.398,-2.3991 -11.9956,-3.5987 -18.5933,-3.5987 H 1011.598 Z m 0,-186.5327 h 140.3493 c 6.5977,0 13.1953,-1.1995 18.5933,-3.5987 5.3981,-2.3991 10.7961,-5.9978 14.9946,-10.1963 4.1985,-4.1985 7.1974,-8.9967 9.5965,-14.9946 2.3992,-5.9978 3.5987,-11.9956 3.5987,-18.5933 0,-6.5976 -1.1995,-12.5954 -3.5987,-17.9935 -2.3991,-5.9978 -5.398,-10.7961 -9.5965,-14.9945 -4.1985,-4.1985 -9.5965,-7.7972 -14.9946,-9.5966 -5.398,-2.9989 -11.9956,-3.5987 -18.5933,-3.5987 H 1011.598 Z m 680.7543,280.099 h -21.5922 l -34.7875,-47.9827 c -8.3969,7.7972 -17.3937,14.9946 -26.9902,21.5922 -9.5965,6.5976 -19.1931,12.5954 -29.9892,17.3937 -10.1963,4.7983 -20.9924,8.9968 -31.7885,11.3959 -10.7961,2.9989 -22.192,4.1985 -33.5879,4.1985 -24.5911,0 -47.3829,-4.1985 -68.9751,-11.9957 -22.192,-8.397 -40.7853,-20.3926 -56.9794,-35.987 -16.1942,-16.1942 -28.7896,-35.3872 -38.3862,-58.179 -9.5965,-22.7918 -13.795,-48.5825 -13.795,-77.9719 0,-26.9902 4.1985,-52.1812 13.795,-74.973 9.5966,-22.7917 22.192,-41.9848 38.3862,-58.1789 16.1941,-16.794 34.7874,-29.3894 56.9794,-38.3862 21.5922,-8.9967 44.384,-13.1952 68.9751,-13.1952 11.3959,0 22.7918,1.1996 33.5879,4.1985 11.3959,2.3991 22.192,6.5976 32.3883,11.3959 10.1963,5.398 20.3926,10.7961 29.9892,17.9935 9.5965,6.5976 17.9935,13.795 26.3904,21.5922 l 34.7875,-41.3851 h 21.5922 z m -89.9675,-177.536 c 0,-11.9956 -2.3992,-23.9913 -7.1974,-35.3872 -4.1985,-11.3959 -10.7961,-21.5923 -18.5933,-30.589 -8.397,-8.397 -17.9935,-15.5944 -28.7896,-20.9924 -10.1964,-5.3981 -22.192,-7.7972 -34.1877,-7.7972 -11.9957,0 -23.3916,1.7993 -34.1877,5.9978 -10.7961,4.1985 -20.3926,10.1963 -28.1898,17.9935 -7.7972,8.397 -14.3948,18.5933 -18.5933,29.9893 -4.7982,11.9956 -7.1974,25.7907 -7.1974,40.7852 0,14.9946 2.3992,28.7897 7.1974,40.7853 4.1985,11.3959 10.7961,21.5922 18.5933,29.9892 7.7972,7.7972 17.3937,13.795 28.1898,17.9935 10.7961,4.1985 22.192,5.9978 34.1877,5.9978 11.9957,0 23.9913,-2.3991 34.1877,-7.7971 10.7961,-5.3981 20.3926,-12.5955 28.7896,-20.9925 7.7972,-8.9967 14.3948,-19.193 18.5933,-30.5889 4.7982,-11.3959 7.1974,-23.3916 7.1974,-35.3873 z m 246.511,177.536 h -88.768 v -349.0741 h 21.5922 l 29.3894,33.5879 c 14.3948,-12.5954 30.589,-22.7918 48.5825,-29.9892 17.9935,-7.1974 37.1866,-10.1963 56.9794,-10.1963 20.9925,0 41.3851,3.5987 59.9784,11.9957 19.1931,7.7972 35.987,19.1931 49.782,33.5879 14.3948,14.3948 25.1909,30.5889 33.5879,49.782 8.397,19.193 11.9957,39.5857 11.9957,61.1779 v 199.1282 h -88.768 v -199.1282 c 0,-9.5965 -1.7993,-17.9935 -5.398,-26.3905 -3.5987,-7.7972 -8.397,-14.9946 -14.3948,-20.9924 -5.9979,-5.9979 -13.1953,-10.7961 -20.9925,-14.3948 -8.3969,-3.5987 -16.7939,-5.3981 -25.7907,-5.3981 -9.5965,0 -17.9935,1.7994 -26.3904,5.3981 -8.397,3.5987 -15.5944,8.3969 -21.5922,14.3948 -5.9979,5.9978 -10.7961,13.1952 -14.3948,20.9924 -3.5987,8.397 -5.3981,16.794 -5.3981,26.3905 z m 624.3747,0 h -21.5922 l -34.7875,-47.9827 c -8.397,7.7972 -17.3937,14.9946 -26.9902,21.5922 -8.9968,6.5976 -19.1931,12.5954 -29.3894,17.3937 -10.7961,4.7983 -21.5922,8.9968 -32.3883,11.3959 -10.7962,2.9989 -22.192,4.1985 -33.5879,4.1985 -24.5911,0 -47.3829,-4.1985 -68.9751,-13.795 -21.5922,-8.9968 -40.7853,-22.192 -56.9795,-38.3862 -16.1941,-16.1941 -28.7896,-35.987 -38.3861,-58.179 -8.9968,-22.7918 -13.795,-47.3829 -13.795,-73.7734 0,-26.3904 4.7982,-50.9816 13.795,-73.1736 9.5965,-22.7918 22.192,-42.5846 38.3861,-58.7788 16.1942,-16.7939 35.3873,-29.3893 56.9795,-38.9859 21.5922,-9.5965 44.384,-13.795 68.9751,-13.795 7.7972,0 16.1941,0.5998 24.5911,1.7994 8.397,1.1995 16.1942,3.5987 24.5911,5.9978 7.7972,2.9989 14.9946,7.1974 22.192,11.9957 7.1974,4.7982 12.5955,10.7961 17.3937,17.3937 v -163.1411 h 89.9676 z m -89.9676,-177.536 c 0,-11.9956 -2.3991,-23.9913 -6.5976,-35.3872 -4.7982,-11.3959 -11.3959,-21.5923 -19.1931,-30.589 -8.3969,-8.397 -17.3937,-15.5944 -28.1898,-20.9924 -10.7961,-5.3981 -22.192,-7.7972 -34.7874,-7.7972 -11.9957,0 -23.3916,1.7993 -34.1877,6.5976 -10.7961,4.1985 -20.3926,10.1963 -28.1898,18.5933 -7.7972,7.7972 -14.3948,17.9935 -18.5933,29.9892 -4.7983,11.3959 -7.1974,24.5912 -7.1974,39.5857 0,13.1953 2.3991,25.1909 7.1974,36.5868 4.1985,11.3959 10.7961,21.5922 18.5933,30.589 7.7972,8.397 17.3937,15.5944 28.1898,20.3926 10.7961,4.7983 22.192,7.1974 34.1877,7.1974 12.5954,0 23.9913,-2.3991 34.7874,-7.7971 10.7961,-5.3981 19.7929,-12.5955 28.1898,-20.9925 7.7972,-8.9967 14.3949,-19.193 19.1931,-30.5889 4.1985,-11.3959 6.5976,-23.3916 6.5976,-35.3873 z"
               id="path13"
               style="stroke-width:1" />
          </g>
        </g>
      </g>
    </g>
  </g>
</svg>
