<?xml version="1.0" encoding="utf-8"?>
<!-- Generator: Adobe Illustrator 25.3.1, SVG Export Plug-In . SVG Version: 6.00 Build 0)  -->
<svg version="1.1" id="Vector_Logo_-_White" xmlns="http://www.w3.org/2000/svg" xmlns:xlink="http://www.w3.org/1999/xlink"
	 x="0px" y="0px" viewBox="0 0 1024.01 252" style="enable-background:new 0 0 1024.01 252;" xml:space="preserve">
<style type="text/css">
	.st0{fill-rule:evenodd;clip-rule:evenodd;fill:#FFFFFF;}
	.st1{fill:#FFFFFF;}
</style>
<g id="Audio_Band_-_Logo_-_White_1_">
	<g id="Icon_Logo_3_">
		<g id="Logo_Rings_3_">
			<g id="Inner_3_">
				<g id="Outer_Inner_1_">
					<path class="st0" d="M236.85,186.05c9.7-17.85,15.2-38.31,15.2-60.05c0-21.74-5.51-42.2-15.2-60.05l-15.98,11.22
						c7.55,14.63,11.81,31.23,11.81,48.83c0,17.6-4.26,34.2-11.81,48.83L236.85,186.05z"/>
				</g>
				<g id="Inner_Inner_1_">
					<path class="st0" d="M199.39,160.16c4.84-10.38,7.54-21.95,7.54-34.16c0-12.08-2.65-23.55-7.4-33.84l-20.06,14.09
						c2.28,6.16,3.52,12.81,3.52,19.76c0,6.95-1.24,13.6-3.52,19.76L199.39,160.16z"/>
				</g>
			</g>
			<g id="Outer_3_">
				<path id="Outer_Outer_1_" class="st0" d="M225.42,48.51C202.36,18.99,166.43,0,126.06,0c-69.59,0-126,56.41-126,126
					c0,69.59,56.41,126,126,126c40.37,0,76.31-18.99,99.36-48.51l-15.88-11.15c-19.53,24.55-49.67,40.29-83.49,40.29
					c-58.89,0-106.63-47.74-106.63-106.63c0-58.89,47.74-106.63,106.63-106.63c33.82,0,63.95,15.74,83.49,40.3L225.42,48.51z"/>
				<path id="Inner_Outer_1_" class="st0" d="M168.75,163.68c-10.43,11.81-25.69,19.26-42.7,19.26c-31.45,0-56.95-25.5-56.95-56.95
					c0-31.45,25.5-56.95,56.95-56.95c17,0,32.26,7.45,42.7,19.26l19.67-13.82c-14.83-17.95-37.27-29.38-62.37-29.38
					c-44.67,0-80.88,36.21-80.88,80.88c0,44.67,36.21,80.88,80.88,80.88c25.1,0,47.53-11.44,62.37-29.38L168.75,163.68z"/>
			</g>
		</g>
		<g id="Speaker_Icon_5_">
			<path class="st1" d="M95.24,115.42c0.6-0.87,1.04-1.83,1.83-2.57c1.19-1.12,2.9-1.49,4.75-1.48c4.41,0.02,8.83,0.02,13.24-0.01
				c0.52,0,1.14-0.17,1.55-0.42c9.74-6.07,19.45-12.15,29.16-18.24c1-0.63,2.02-1.06,3.34-0.73c1.29,0.31,2.13,1.15,2.21,2.21
				c0.01,0.19,0.01,0.38,0.01,0.57c0,20.84,0,41.68,0.01,62.52c0,1.05-0.29,1.93-1.48,2.52c-1.24,0.61-2.55,0.49-3.94-0.39
				c-5.3-3.32-10.59-6.64-15.89-9.95c-4.49-2.81-8.97-5.63-13.49-8.42c-0.37-0.23-0.92-0.37-1.39-0.38
				c-4.08-0.03-8.16-0.1-12.23,0.01c-3.67,0.1-6.48-0.85-7.68-4.08C95.24,129.52,95.24,122.47,95.24,115.42z"/>
		</g>
	</g>
	<g id="Audio_Band_4_">
		<g id="Audio_1_">
			<path id="A_3_" class="st1" d="M357.07,98.08l20.47,50.69c1.96,4.86-1.61,10.16-6.85,10.16h-2.23c-3.08,0-5.83-1.91-6.92-4.78
				l0,0c-1.09-2.88-3.84-4.78-6.92-4.78h-15.55c-3.08,0-5.83,1.91-6.92,4.79l0,0c-1.09,2.88-3.84,4.79-6.92,4.79h-2.22
				c-5.24,0-8.82-5.31-6.85-10.17l20.54-50.69c1.13-2.79,3.84-4.62,6.85-4.62h6.65C353.23,93.46,355.94,95.29,357.07,98.08z
				 M346.89,114.95l-7.22,19.22h14.35L346.89,114.95z"/>
			<path id="U_1_" class="st1" d="M441.89,93.46c4.08,0,7.39,3.31,7.39,7.39v29.46c0,4.19-0.66,8.11-1.97,11.75
				c-1.32,3.64-3.25,6.8-5.79,9.49c-2.55,2.69-5.7,4.8-9.45,6.34c-3.75,1.54-8.06,2.31-12.93,2.31c-4.92,0-9.26-0.77-13.01-2.31
				c-3.75-1.54-6.88-3.65-9.4-6.34c-2.52-2.68-4.42-5.85-5.71-9.49c-1.29-3.64-1.93-7.56-1.93-11.75v-29.46
				c0-4.08,3.31-7.39,7.39-7.39h2c4.08,0,7.39,3.31,7.39,7.39v28.45c0,4.75,1.12,8.39,3.36,10.91c2.24,2.52,5.54,3.77,9.91,3.77
				c4.42,0,7.77-1.26,10.03-3.77c2.27-2.52,3.4-6.16,3.4-10.91v-28.45c0-4.08,3.31-7.39,7.39-7.39H441.89z"/>
			<path id="D_3_" class="st1" d="M465.06,100.85c0-4.08,3.31-7.39,7.39-7.39h23c5.09,0,9.58,0.87,13.47,2.6
				c3.89,1.74,7.12,4.1,9.69,7.09c2.58,3,4.52,6.48,5.83,10.45c1.31,3.97,1.97,8.17,1.97,12.59c0,4.48-0.66,8.7-1.97,12.68
				c-1.32,3.98-3.26,7.45-5.83,10.41c-2.58,2.97-5.81,5.32-9.69,7.05c-3.89,1.74-8.38,2.6-13.47,2.6h-23
				c-4.08,0-7.39-3.31-7.39-7.39V100.85z M481.85,109.74v32.99h12.34c2.52,0,4.73-0.41,6.63-1.22c1.9-0.81,3.5-1.94,4.78-3.4
				c1.29-1.46,2.25-3.19,2.9-5.21c0.64-2.01,0.97-4.25,0.97-6.72c0-4.92-1.29-8.9-3.87-11.92c-2.58-3.02-6.38-4.54-11.42-4.54
				H481.85z"/>
			<path id="I_1_" class="st1" d="M559,100.85v50.69c0,4.08-3.31,7.39-7.39,7.39h-2.01c-4.08,0-7.39-3.31-7.39-7.39v-50.69
				c0-4.08,3.31-7.39,7.39-7.39h2.01C555.69,93.46,559,96.77,559,100.85z"/>
			<path id="O_1_" class="st1" d="M574.77,126.2c0-4.7,0.92-9.11,2.77-13.22c1.84-4.12,4.35-7.71,7.52-10.79
				c3.16-3.08,6.85-5.51,11.08-7.3c4.22-1.79,8.69-2.69,13.39-2.69c4.75,0,9.24,0.89,13.47,2.69c4.23,1.79,7.92,4.23,11.08,7.3
				c3.16,3.08,5.65,6.67,7.47,10.79c1.82,4.11,2.73,8.52,2.73,13.22c0,4.7-0.91,9.11-2.73,13.22c-1.82,4.11-4.31,7.71-7.47,10.79
				c-3.16,3.08-6.85,5.51-11.08,7.3c-4.23,1.79-8.72,2.69-13.47,2.69c-4.7,0-9.17-0.9-13.39-2.69c-4.23-1.79-7.92-4.23-11.08-7.3
				c-3.16-3.08-5.67-6.67-7.52-10.79S574.77,130.9,574.77,126.2z M591.73,126.2c0,2.47,0.46,4.79,1.39,6.97
				c0.92,2.18,2.19,4.07,3.82,5.67c1.62,1.6,3.51,2.86,5.66,3.78s4.46,1.38,6.93,1.38c2.51,0,4.85-0.46,7.01-1.38
				c2.15-0.92,4.03-2.18,5.62-3.78c1.6-1.6,2.86-3.48,3.78-5.67c0.92-2.18,1.39-4.5,1.39-6.97c0-2.46-0.46-4.78-1.39-6.97
				c-0.92-2.18-2.18-4.07-3.78-5.67c-1.59-1.6-3.47-2.86-5.62-3.78c-2.16-0.93-4.5-1.39-7.01-1.39c-2.47,0-4.78,0.46-6.93,1.39
				c-2.15,0.92-4.04,2.18-5.66,3.78c-1.63,1.6-2.9,3.48-3.82,5.67C592.18,121.41,591.73,123.74,591.73,126.2z"/>
		</g>
		<g id="Band_1_">
			<path id="B_1_" class="st1" d="M684.28,100.85c0-4.08,3.31-7.39,7.39-7.39h25.18c3.53,0,6.62,0.45,9.28,1.34
				c2.66,0.89,4.87,2.16,6.63,3.78c1.76,1.62,3.09,3.54,3.98,5.75c0.9,2.21,1.35,4.6,1.35,7.18c0,3.36-0.72,6.16-2.14,8.39
				c-1.43,2.24-3.37,4.03-5.83,5.37c3.35,1.29,6.01,3.18,7.97,5.67c1.96,2.49,2.94,5.67,2.94,9.53c0,2.69-0.49,5.16-1.47,7.43
				c-0.98,2.27-2.39,4.23-4.24,5.88c-1.84,1.65-4.09,2.92-6.72,3.82s-5.6,1.34-8.9,1.34h-28.04c-4.08,0-7.39-3.31-7.39-7.39V100.85z
				 M701.08,108.74v10.41h13.85c2.3,0,3.91-0.47,4.83-1.43c0.92-0.95,1.39-2.21,1.39-3.78c0-1.56-0.44-2.82-1.3-3.78
				c-0.87-0.95-2.19-1.42-3.98-1.42H701.08z M701.08,132.24v11.5h16.79c2.3,0,3.91-0.55,4.83-1.64c0.92-1.09,1.39-2.51,1.39-4.24
				c0-1.68-0.46-3.03-1.39-4.07c-0.92-1.03-2.53-1.55-4.83-1.55H701.08z"/>
			<path id="A_2_" class="st1" d="M793.07,98.08l20.47,50.69c1.96,4.86-1.61,10.16-6.85,10.16h-2.23c-3.08,0-5.83-1.91-6.92-4.79
				l0,0c-1.09-2.88-3.84-4.79-6.92-4.79h-15.55c-3.08,0-5.83,1.91-6.92,4.79l0,0c-1.09,2.88-3.84,4.79-6.92,4.79h-2.22
				c-5.24,0-8.82-5.31-6.85-10.17l20.54-50.69c1.13-2.79,3.84-4.62,6.85-4.62h6.65C789.22,93.46,791.94,95.29,793.07,98.08z
				 M782.89,114.95l-7.22,19.22h14.35L782.89,114.95z"/>
			<path id="N_1_" class="st1" d="M824.66,151.54v-50.69c0-4.08,3.31-7.39,7.39-7.39h3.32c2.25,0,4.38,1.02,5.78,2.78l26.99,33.82
				v-29.21c0-4.08,3.31-7.39,7.39-7.39h1.92c4.08,0,7.39,3.31,7.39,7.39v50.69c0,4.08-3.31,7.39-7.39,7.39h-3.24
				c-2.25,0-4.37-1.02-5.77-2.77l-26.99-33.74v29.13c0,4.08-3.31,7.39-7.39,7.39h-2.01C827.97,158.94,824.66,155.63,824.66,151.54z"
				/>
			<path id="D_2_" class="st1" d="M896.03,100.85c0-4.08,3.31-7.39,7.39-7.39h23c5.09,0,9.58,0.87,13.47,2.6
				c3.89,1.74,7.12,4.1,9.69,7.09c2.58,3,4.52,6.48,5.83,10.45c1.31,3.97,1.97,8.17,1.97,12.59c0,4.48-0.66,8.7-1.97,12.68
				c-1.32,3.98-3.26,7.45-5.83,10.41s-5.81,5.32-9.69,7.05c-3.89,1.74-8.38,2.6-13.47,2.6h-23c-4.08,0-7.39-3.31-7.39-7.39V100.85z
				 M912.82,109.74v32.99h12.34c2.52,0,4.73-0.41,6.63-1.22c1.9-0.81,3.5-1.94,4.78-3.4c1.29-1.46,2.25-3.19,2.9-5.21
				c0.64-2.01,0.97-4.25,0.97-6.72c0-4.92-1.29-8.9-3.87-11.92c-2.58-3.02-6.38-4.54-11.42-4.54H912.82z"/>
		</g>
	</g>
</g>
</svg>
