<?xml version="1.0" encoding="utf-8"?>
<!-- http://simpleicon.com/music-note-5.html -->
<!-- Generator: Adobe Illustrator 16.0.0, SVG Export Plug-In . SVG Version: 6.00 Build 0)  -->
<!DOCTYPE svg PUBLIC "-//W3C//DTD SVG 1.1//EN" "http://www.w3.org/Graphics/SVG/1.1/DTD/svg11.dtd">
<svg version="1.1" id="Layer_1" xmlns="http://www.w3.org/2000/svg" xmlns:xlink="http://www.w3.org/1999/xlink" x="0px" y="0px"
	 width="512px" height="512px" viewBox="0 0 512 512" enable-background="new 0 0 512 512" xml:space="preserve">
  <defs>
    <linearGradient id="strokeColour">
      <stop stop-color="#ffffff"/>
    </linearGradient>
    <rect id="outsideBox" x="0" y="0" width="100%" height="100%"/>
    <line id="boxLine" x1="12%" y1="0" x2="12%" y2="100%"/>
    <circle id="disk" cx="55%" cy="50%" r="30%"/>
    <circle id="diskInner" cx="55%" cy="50%" r="5%"/>
    <circle id="diskInner2" cx="55%" cy="50%" r="10%"/>
    <path id="ukwNHQztq" d="M160,96v304.594C143,390.375,120.688,384,96,384c-53,0-96,28.625-96,64s43,64,96,64s96-28.625,96-64V151.281l288-78.563
	    v231.875C463,294.375,440.688,288,416,288c-53,0-96,28.625-96,64s43,64,96,64s96-28.625,96-64V0L160,96z"/>
  </defs>
  <g>
	  <use xlink:href="#outsideBox" fill-opacity="0" stroke="url(#strokeColour)" stroke-opacity="1" stroke-width="8%"/>
    <use xlink:href="#boxLine" stroke="url(#strokeColour)" stroke-width="4%"/>
    <use xlink:href="#disk" fill-opacity="0" stroke="url(#strokeColour)" stroke-width="4%"/>
    <use xlink:href="#diskInner" fill-opacity="0" stroke="url(#strokeColour)" stroke-width="4%"/>
    <use xlink:href="#diskInner2" fill-opacity="0" stroke="url(#strokeColour)" stroke-width="4%"/>
  </g>
</svg>